<?xml version="1.0" encoding="UTF-8" standalone="no"?>
<!-- Created with Inkscape (http://www.inkscape.org/) -->

<svg
   xmlns:dc="http://purl.org/dc/elements/1.1/"
   xmlns:cc="http://creativecommons.org/ns#"
   xmlns:rdf="http://www.w3.org/1999/02/22-rdf-syntax-ns#"
   xmlns:svg="http://www.w3.org/2000/svg"
   xmlns="http://www.w3.org/2000/svg"
   xmlns:sodipodi="http://sodipodi.sourceforge.net/DTD/sodipodi-0.dtd"
   xmlns:inkscape="http://www.inkscape.org/namespaces/inkscape"
   width="1200"
   height="1200"
   viewBox="0 0 1200.0001 1200"
   id="svg4301"
   version="1.1"
   inkscape:version="0.91 r13725"
   sodipodi:docname="underthewaves.svg">
  <title
     id="title4949">Ryan Hettler under the waves </title>
  <defs
     id="defs4303" />
  <sodipodi:namedview
     id="base"
     pagecolor="#ffffff"
     bordercolor="#666666"
     borderopacity="1.0"
     inkscape:pageopacity="0.0"
     inkscape:pageshadow="2"
     inkscape:zoom="0.35"
     inkscape:cx="-52.142857"
     inkscape:cy="520"
     inkscape:document-units="px"
     inkscape:current-layer="layer1"
     showgrid="false"
     units="px"
     showborder="true"
     inkscape:showpageshadow="false"
     inkscape:window-width="2560"
     inkscape:window-height="1377"
     inkscape:window-x="-8"
     inkscape:window-y="-8"
     inkscape:window-maximized="1" />
  <metadata
     id="metadata4306">
    <rdf:RDF>
      <cc:Work
         rdf:about="">
        <dc:format>image/svg+xml</dc:format>
        <dc:type
           rdf:resource="http://purl.org/dc/dcmitype/StillImage" />
        <dc:title>Ryan Hettler under the waves </dc:title>
      </cc:Work>
    </rdf:RDF>
  </metadata>
  <g
     inkscape:label="Layer 1"
     inkscape:groupmode="layer"
     id="layer1"
     transform="translate(0,147.63789)">
    <path
       style="opacity:1;fill:#00ffff;fill-opacity:1;stroke:none;stroke-width:0.69999999;stroke-miterlimit:4;stroke-dasharray:none;stroke-opacity:1"
       d="m 552.18477,-116.43807 c -22.6831,0.0286 -64.60821,3.78688 -78.52006,7.61853 -6.54938,1.80383 -7.74077,2.79743 -20.22977,16.905637 -11.97955,13.532804 -18.3195,22.451191 -20.54997,28.905786 -2.77767,8.03805 -7.62389,27.304436 -9.66546,38.425717 l -1.77534,9.678392 2.09537,15.59599722 c 3.18133,23.64921178 4.18646,38.72871578 3.03,45.45572978 -0.52335,3.044191 -1.69886,6.620573 -2.6257,7.9904 -0.92268,1.363602 -4.4775,7.882685 -7.89987,14.48685 -8.47241,16.349032 -12.18898,21.873704 -19.86768,29.52665 -7.28581,7.261341 -12.27127,10.362971 -24.31077,15.133591 -10.21628,4.04813 -19.12578,6.12352 -27.14668,6.32183 -3.55153,0.0877 -6.3575,0.33078 -6.23449,0.54002 0.12253,0.20925 2.15912,4.31947 4.52387,9.13191 5.37288,10.93455 7.407,18.05146 7.93863,27.77076 0.68825,12.58075 -2.40134,21.19315 -10.49328,29.23239 -6.67901,6.63553 -30.0699,20.6634 -50.0798,30.03435 -27.49024,12.87405 -72.75495,22.56686 -105.04589,22.49665 -14.91731,-0.0325 -21.88144,-1.24761 -30.29308,-5.28382 -19.35078,-9.28518 -34.29609,-26.61237 -39.8549,-46.20915 -2.39305,-8.43602 -2.37716,-20.49047 0.0348,-28.36903 3.11293,-10.1648 11.59776,-22.02057 19.85808,-27.74489 3.71674,-2.57572 5.18876,-2.393 13.98882,1.73648 6.80584,3.19371 11.91614,7.42964 11.91614,9.87563 0,1.48172 -3.21939,4.72115 -4.69208,4.72115 -0.37551,0 -1.95598,0.54854 -3.51178,1.21911 -2.52633,1.08882 -2.66542,1.28428 -1.30646,1.84641 4.48247,1.8542 13.50521,-0.35921 24.22664,-5.94348 6.62157,-3.44877 7.6681,-4.97742 6.95567,-10.15695 -1.2909,-9.38596 -5.22387,-19.06897 -9.32589,-22.96231 -3.13711,-2.97755 -9.56628,-4.51939 -19.19185,-4.60152 -13.49129,-0.11507 -21.82546,3.38708 -29.76922,12.50785 -14.01383,16.09028 -42.344982,58.78791 -50.328809,75.849 -1.529315,3.26797 -2.245048,5.948 -2.198857,8.24586 0.09603,4.78583 3.504328,23.9993 6.260307,35.29877 2.134617,8.75113 2.707469,10.08663 7.169086,16.73747 5.863285,8.74023 15.246293,20.46678 24.847513,31.04974 7.11479,7.8423 7.12273,7.8472 22.71655,16.63077 8.57869,4.83211 18.48653,10.66902 22.02132,12.97025 8.26065,5.37795 15.69482,12.4851 16.8377,16.10045 0.47997,1.51778 3.52851,8.40667 6.77786,15.31145 9.24509,19.64563 11.38964,27.17262 11.41167,40.05226 0.0165,5.84374 -0.45763,9.53588 -1.93064,15.21766 -3.53711,13.64442 -8.78468,25.29939 -14.84581,32.96727 l -2.97484,3.76078 2.84554,0.44947 c 25.56987,4.01842 43.11188,14.47611 48.88029,29.14186 2.71491,6.90269 2.83777,16.68856 0.41705,33.20011 -2.27766,15.53676 -5.64192,32.04158 -8.45932,41.51389 -11.78552,39.62535 -40.97478,89.85499 -60.96431,104.90679 -11.2153,8.44482 -32.35169,13.77197 -54.668565,13.78192 -16.769152,0.006 -21.221995,-1.64199 -27.531474,-10.18931 -8.856018,-11.99719 -21.295837,-43.85258 -19.663871,-50.35475 0.811428,-3.23295 15.451591,-9.44879 22.250808,-9.44879 5.238942,0 6.670243,3.35532 4.346055,10.17635 -0.675005,1.98037 -0.980304,3.83826 -0.682289,4.12942 0.298016,0.29117 1.82882,-0.91783 3.405155,-2.68721 3.624361,-4.06841 7.680349,-15.66463 8.213465,-23.48615 0.363909,-5.3383 0.340896,-5.41731 -1.991901,-7.0785 -3.056477,-2.17632 -10.968946,-5.7527 -15.308212,-6.92007 -5.440931,-1.46362 -11.730377,-1.17444 -14.729403,0.67908 -5.296062,3.27315 -13.868303,13.25302 -17.254915,20.08757 -4.204995,8.48611 -4.655825,13.49042 -2.273193,25.26147 5.708977,28.20598 23.130284,78.32642 29.177344,83.93965 3.589261,3.33459 23.226313,13.84088 37.491136,20.05846 l 7.51844,3.27572 26.62914,0 26.62931,0 17.50061,-6.97502 c 28.9588,-11.54512 41.34514,-15.01115 47.76471,-13.36479 1.76642,0.45299 10.11713,2.55593 18.55792,4.67266 23.73178,5.95121 33.34822,10.40081 42.91087,19.85799 9.35122,9.24824 19.1349,26.06404 21.84352,37.54292 l 1.3323,5.63953 3.79307,-3.44062 c 13.43966,-12.18368 28.63545,-19.26648 41.45888,-19.32443 12.50191,-0.0571 19.48771,3.75115 33.74013,18.39958 22.41753,23.04024 33.58317,38.43261 45.52032,62.74618 19.62563,39.97278 29.38248,79.1578 23.63825,94.93092 -2.42602,6.66147 -7.71694,13.99499 -15.54746,21.5427 -10.96696,10.57143 -21.52249,16.91298 -30.76842,18.49014 -16.43074,2.80251 -42.05044,0.7043 -44.37247,-3.63465 -0.41243,-0.77038 -0.97467,-2.80085 -1.24819,-4.51096 -0.47931,-2.99754 -0.34354,-3.26578 3.79307,-7.51182 4.01145,-4.11758 4.35069,-4.30884 5.17073,-2.91031 1.70747,2.91226 4.37105,4.97338 6.43498,4.97338 2.14686,0 6.35418,-3.31466 6.35418,-5.00573 0,-2.61923 -19.92116,-26.19533 -23.86456,-28.24286 -3.58611,-1.86194 -8.10138,-1.57536 -12.0971,0.76638 -4.77487,2.79818 -13.97658,13.46299 -16.8314,19.50873 -2.06326,4.36955 -2.35119,5.78035 -2.33462,11.45042 0.0232,8.12025 1.64091,11.97796 7.6767,18.30582 3.57652,3.74969 5.99673,5.3646 13.53933,9.05105 17.31551,8.46314 52.34107,21.27259 72.74155,26.6034 10.68681,2.79258 12.64677,2.82708 26.92351,0.44308 14.11036,-2.35637 21.171,-4.29175 28.97369,-7.94194 4.9911,-2.33463 7.1143,-3.93394 11.79329,-8.87321 7.2176,-7.61893 15.4766,-17.91573 24.09719,-30.04727 6.5416,-9.20602 6.84557,-9.82268 10.07292,-20.49823 7.44656,-24.63245 14.2779,-41.74168 18.8233,-47.1437 1.12468,-1.33644 3.44256,-3.30196 5.15119,-4.36869 1.70862,-1.0669 6.87306,-4.92012 11.47624,-8.55954 14.56962,-11.51913 23.08376,-16.52311 33.88896,-19.91618 5.01559,-1.57502 7.0878,-1.77189 17.84978,-1.71063 16.65343,0.0945 24.42963,1.73811 39.64165,8.38816 0.58594,0.25629 0.73163,-1.30991 0.4818,-5.20299 -0.41622,-6.48679 0.84388,-19.34992 2.5482,-26.00842 4.41625,-17.25425 15.88586,-28.47938 31.91312,-31.23404 16.39398,-2.81773 51.90266,-3.86034 68.07511,-1.9984 17.5622,2.02186 41.57379,7.55376 61.25223,14.11175 26.39471,8.79624 42.5026,17.80749 50.34189,28.16203 7.43035,9.8143 16.35574,31.97039 18.83291,46.75245 2.17551,12.9812 1.39851,18.02563 -3.79308,24.64058 -8.55717,10.90255 -35.99378,30.21851 -45.66271,32.14915 -2.09887,0.41904 -2.7035,0.0643 -5.86908,-3.4568 -4.5103,-5.01641 -8.90883,-13.70645 -8.90883,-17.60087 0,-4.30979 2.27965,-5.58269 8.75353,-4.8893 2.88809,0.30927 4.94109,0.23789 4.94109,-0.17139 0,-0.38509 -1.67484,-1.61315 -3.72519,-2.72922 -4.55682,-2.48015 -13.77194,-3.86493 -22.38674,-3.36625 -5.16046,0.29884 -6.3055,0.61282 -7.48266,2.06632 -3.39489,4.19257 -5.96462,19.10162 -4.49806,26.08925 0.8116,3.8669 1.40267,4.79314 5.23862,8.22646 9.50554,8.50717 23.78874,13.3451 34.18632,11.57653 12.43204,-2.11474 69.22347,-34.31538 84.8062,-48.08469 3.38214,-2.98859 3.78329,-3.77042 7.07538,-13.84333 3.95563,-12.1029 8.21212,-29.29768 9.48762,-38.32226 0.47336,-3.34786 0.98595,-6.94113 1.13826,-7.98718 0.55265,-3.79934 -7.28961,-37.61315 -9.88863,-42.63918 -0.63759,-1.23279 -5.95815,-9.49633 -11.82558,-18.3608 -12.69345,-19.17727 -18.469,-29.17746 -20.92513,-36.23975 -1.80167,-5.18083 -1.80846,-5.3107 -1.07021,-22.65188 0.40844,-9.59344 1.10282,-20.30933 1.54239,-23.80951 0.92351,-7.35553 3.76078,-16.8715 6.86511,-23.03345 6.0065,-11.92257 26.11856,-31.35984 36.2817,-35.06271 1.36607,-0.49775 2.39406,-1.14263 2.28313,-1.43252 -0.11098,-0.28989 -3.32719,-2.93786 -7.14972,-5.88528 -23.82053,-18.36758 -30.81693,-39.80478 -19.58953,-60.02991 3.90897,-7.04185 15.56484,-24.48275 23.01406,-34.43861 8.45932,-11.30615 27.34836,-30.30886 40.42726,-40.67311 21.31007,-16.88685 46.30887,-32.09695 62.00877,-37.72402 8.9226,-3.198 20.117,-3.88339 30.4743,-1.86907 18.0877,3.51766 39.1101,12.54578 46.8786,20.13285 6.479,6.32771 7.1011,8.99738 7.1011,30.46119 0,17.33776 -0.7362,24.44914 -3.1625,30.51293 -1.5138,3.78356 -2.6709,4.10676 -14.7165,4.10676 -15.0455,0 -17.9759,-2.77203 -10.917,-10.31866 1.9464,-2.08086 3.3373,-3.9839 3.0914,-4.22964 -0.2456,-0.24573 -2.2643,0.39863 -4.4882,1.43252 -7.0279,3.26752 -19.638,17.36626 -19.638,21.96957 0,4.20066 12.0148,17.53887 18.435,20.45297 4.3772,1.98674 6.2191,1.88804 14.5258,-0.77283 14.9667,-4.79433 24.0832,-13.08406 27.7998,-25.27439 5.2426,-17.19552 12.2014,-65.41781 12.5079,-86.68182 l 0.149,-10.38009 -3.7997,-5.59748 c -7.8759,-11.60053 -17.6142,-23.94571 -23.9162,-30.3189 -6.2843,-6.35545 -7.0088,-6.83462 -19.8386,-13.12871 -7.3232,-3.59267 -17.6194,-8.25595 -22.8814,-10.36392 l -9.5651,-3.8319 -18.5872,-1.21587 c -34.3195,-2.24111 -45.2899,-4.53985 -50.9207,-10.67433 -1.0462,-1.13978 -6.1807,-5.51643 -11.41155,-9.7269 -23.89237,-19.23156 -30.68099,-30.13536 -33.86959,-54.3936 -0.62169,-4.72923 -1.11921,-10.71901 -1.10266,-13.31301 0.0266,-4.60715 1.56922,-14.79185 2.64836,-17.47478 0.48379,-1.20238 0.30763,-1.25968 -1.63941,-0.51738 -5.77255,2.20065 -18.13091,4.60073 -25.76589,5.00249 -14.27378,0.75112 -24.24768,-2.33454 -32.26893,-9.98559 -5.48381,-5.23065 -8.0729,-10.00247 -12.59511,-23.20805 -11.71234,-34.20059 -15.49017,-57.74711 -14.59347,-90.92439 0.92548,-34.2375 5.1679,-59.0687 12.80521,-74.914479 2.52386,-5.236812 4.32883,-7.653296 9.66232,-12.941163 13.93916,-13.820305 36.19279,-26.786831 50.0831,-29.180655 6.48894,-1.118269 11.11249,0.445548 20.98972,7.094682 11.936,8.035103 27.00497,22.409122 30.0149,28.630934 1.0941,2.261372 1.0414,2.585121 -1.0379,6.464103 -1.20431,2.246554 -4.79341,6.738454 -7.97422,9.982348 -4.76129,4.85573 -6.20186,5.89822 -8.15221,5.89822 -2.8818,0 -3.60566,-1.17723 -4.3396,-7.06881 -0.67385,-5.408408 -1.86375,-5.340811 -3.35647,0.19402 -0.9111,3.37649 -0.93411,5.26029 -0.15233,11.52804 1.25515,10.05683 2.70682,14.67582 5.25154,16.68899 1.93594,1.5315 2.71408,1.6179 11.58616,1.29992 14.02393,-0.50263 18.99743,-2.72064 22.63573,-10.08905 3.9265,-7.95231 5.1382,-13.32568 5.1382,-22.823247 0,-8.252056 -0.1911,-9.534055 -1.9789,-13.316263 C 1013.6027,75.107644 996.96639,55.417996 975.47817,33.74012 960.77957,18.911861 951.43497,10.625713 946.56274,8.0938585 943.71174,6.61226 942.271,6.5113322 923.73942,6.4964312 c -11.80324,-0.00995 -22.2326,0.358827 -25.85646,0.9118931 -7.44162,1.1357364 -18.58987,5.8404527 -35.25669,14.8813567 l -11.92905,6.473818 -11.79313,12.679222 c -24.24502,26.071397 -34.65305,34.730741 -43.53489,36.220354 -2.62949,0.440997 -10.1206,1.96349 -16.64696,3.382423 -27.7631,6.03618 -40.97676,5.039715 -57.3719,-4.326651 -12.91995,-7.381025 -22.19436,-14.919038 -27.53148,-22.377 l -1.6265,-2.276506 -1.34835,3.417986 C 684.25622,72.177262 672.64206,86.729726 661.54364,92.195206 650.32305,97.720892 642.42183,97.574775 624.9805,91.52583 583.92952,77.288669 557.89639,60.76361 525.77135,28.543612 506.13197,8.8462642 497.10543,-3.6601417 493.04016,-16.805411 c -4.08826,-13.219541 -2.92302,-42.554883 2.35417,-59.260274 2.59207,-8.205005 5.56162,-12.015709 11.77375,-15.094786 10.74494,-5.325714 30.64921,-9.503389 45.90195,-9.636339 11.12624,-0.0968 11.0413,-0.14089 13.12542,6.748671 2.14638,7.095793 2.99208,15.12106 1.95647,18.577457 -0.84255,2.812734 -1.17798,3.120567 -3.37916,3.117255 -1.43743,-0.0016 -3.85085,-0.940138 -5.86592,-2.279733 -4.53564,-3.01502 -5.65469,-2.980036 -5.02835,0.151988 0.26771,1.338155 0.98857,3.200187 1.60382,4.1391 2.59703,3.963636 17.9665,12.449635 22.54849,12.449635 2.53743,0 3.37452,-0.61224 8.76976,-6.392956 3.28081,-3.515304 7.16279,-8.381778 8.62736,-10.813399 2.26741,-3.764296 2.66459,-5.108776 2.66459,-9.051053 0,-4.176682 -0.3255,-5.124968 -3.30481,-9.697779 -7.33234,-11.254046 -19.7147,-20.158056 -30.555,-21.969556 -2.604,-0.43515 -6.81413,-0.62748 -12.04859,-0.62087 z m -13.60091,312.89979 21.52017,6.45441 18.29283,12.91206 6.45451,10.76166 0,10.75842 3.22717,-10.75842 10.76167,-10.76166 -1.07683,-7.53123 7.53117,-8.60803 27.97784,-1.07681 27.97767,5.38083 16.13918,12.91206 4.30399,3.22719 22.59701,9.68486 17.21601,22.59689 8.608,17.21607 -1.07667,11.83524 -6.45451,8.60804 23.67052,-2.1504 4.30401,-5.38082 10.76165,-5.38084 13.9857,6.45764 20.44648,19.36646 13.98884,22.5969 -3.23048,10.76167 13.98884,25.8241 4.30399,21.5201 -7.53118,26.89766 -15.06565,9.68487 13.98883,7.53444 17.21617,2.15041 5.38084,7.53121 10.75833,24.75051 -2.15033,35.50573 -11.83535,9.68486 0,19.36969 -12.91201,26.90091 -19.36965,11.83524 -19.36653,3.22721 -6.45765,-2.1504 7.53133,16.13927 8.60801,9.68485 3.23048,11.83523 -6.45765,21.5201 -16.13935,22.59691 -21.52001,6.45441 -4.30399,4.30402 -21.52018,13.98885 -21.52002,6.45764 -19.36965,-4.304 -17.21618,-7.53123 -2.15366,-8.61126 -5.37751,15.06566 -1.07683,10.76167 2.15035,11.83524 -20.44319,11.83524 -26.90101,9.68485 -25.824,-8.60804 -18.29302,2.1504 -31.20168,-10.75844 -11.83849,-15.06568 -10.75836,-12.91205 1.07352,-12.91204 -18.28952,11.83847 -6.45765,11.83522 -29.05136,-2.15362 -35.50901,-19.36645 -17.21601,-26.90093 -27.97766,-22.5969 4.304,0 -17.21617,-32.28175 8.608,-23.67049 4.30417,-10.76165 -16.13934,-3.22722 -12.91201,4.30403 -11.83534,-6.45442 -19.36967,-29.05453 -4.30399,-33.35533 7.53116,-4.30403 -5.37752,-20.44325 0,-18.29289 8.608,-15.06567 15.06252,-17.21608 18.29284,-5.38083 -10.76165,-12.91205 -11.83518,-8.60805 -6.45452,-13.98562 2.1505,-26.90092 13.98884,-24.75053 11.83518,-5.37758 17.21601,-25.82411 18.293,-11.83847 21.52002,0 13.98883,1.07681 9.685,6.45764 -1.07684,-10.76166 -1.07682,-13.98886 -2.15052,-9.68485 1.0737,-8.60805 19.36965,-17.21605 23.67366,-12.91206 22.5937,3.23045 33.35851,-8.60805 z"
       id="path4606"
       inkscape:connector-curvature="0" />
    <path
       style="fill:#000000;fill-rule:evenodd;stroke:none;stroke-width:1px;stroke-linecap:butt;stroke-linejoin:miter;stroke-opacity:1"
       d="m 936.44508,910.80055 c 12.03187,-14.57626 12.84925,-38.98391 8.76379,-64.69688 -2.07302,24.83515 -11.86348,51.95649 -13.87956,57.78835 -3.04587,8.81072 -72.89087,49.29284 -87.71747,52.60097 -14.82658,3.30814 -29.95598,-5.91871 -37.73169,-12.79133 -7.77588,-6.8726 -2.47402,-27.257 0.31358,-33.05165 2.78777,-5.79464 27.40332,-1.372 27.40332,-1.372 0,0 17.00525,7.75561 0.77104,5.46018 -16.23423,-2.29543 0.34701,22.72103 5.25748,25.51041 4.9103,2.78936 44.77695,-23.53321 51.05481,-37.01254 6.27785,-13.47939 -8.1686,-56.10027 -21.47366,-69.81877 -13.30521,-13.71843 -46.60874,-25.55198 -74.22846,-32.14299 -27.61973,-6.59103 -50.19173,-10.18436 -99.07135,-4.8168 -37.44644,4.11234 -38.32493,44.9586 -36.69049,63.86499 -0.78891,-0.43396 -1.34701,-0.59532 -1.65761,-0.64052 -9.36099,-5.71329 -22.31853,-8.45085 -39.70657,-9.11185 -30.9982,-1.17848 -51.3442,24.97919 -63.32871,31.07342 -9.95288,5.06106 -18.24268,35.79122 -26.39604,61.77334 17.94416,-26.84342 29.8757,-50.79506 29.8757,-50.79506 0,0 33.88217,-30.51712 65.81234,-32.61623 12.38155,-0.81406 22.58939,1.86458 30.46445,5.44446 0.91623,0.66457 2.66922,1.47964 4.4136,2.21151 0.51855,0.28714 1.02732,0.57603 1.51938,0.86621 -0.0165,-0.0641 -0.0281,-0.19712 -0.0398,-0.26545 0.26953,0.10661 0.49007,0.19035 0.7399,0.28694 -0.0297,0.0843 -0.0928,0.24793 -0.12086,0.32278 8.2186,4.96592 12.52905,10.1336 12.52905,10.13361 -2.23593,-5.78262 -5.31626,-10.51675 -9.32887,-14.36839 -0.1341,-0.1696 -0.25728,-0.33594 -0.41523,-0.51767 -0.2207,-0.25421 -0.43361,-0.48818 -0.64338,-0.71473 1.6649,-4.05889 4.31643,-10.21949 8.5527,-19.35645 9.01149,-19.43611 21.08425,-23.16903 32.59476,-26.47023 11.5105,-3.30112 57.36594,3.86092 57.3661,3.86075 0,0 52.3573,-6.91742 93.80592,34.63754 37.71564,37.81217 -6.06394,67.04236 -12.40571,70.31443 -0.76044,0.87073 -1.32235,0.67429 -1.32235,0.67429 0,0 0.69469,-0.35035 1.32235,-0.67429 1.1063,-1.26693 5.59292,-6.47187 6.23149,-16.37397 1.07749,-16.7076 -21.74667,-5.3923 -41.6564,-5.71606 -19.90989,-0.32372 -6.64838,48.75564 5.40269,57.57455 12.05108,8.81907 71.10593,-10.20523 117.77546,-45.46883 2.18758,-1.65298 4.12949,-3.5297 5.84373,-5.60635 z M 660.79309,868.87209 c -0.19055,-0.11533 -0.38542,-0.22887 -0.58013,-0.34429 0.1308,0.78616 0.22981,1.3397 0.22981,1.3397 0,0 0.16705,-0.48186 0.35032,-0.99536 z m -132.6656,74.54479 c -10.43418,15.60914 -22.88857,32.18402 -36.24941,45.61899 14.07178,-8.31216 27.02749,-18.73792 31.26014,-30.54666 1.66573,-4.64704 3.32519,-9.76922 4.98927,-15.07233 z m -36.24941,45.61899 c -18.59715,10.98523 -39.14446,18.27583 -44.09831,20.15473 -8.70205,3.3005 -86.68484,-26.93495 -98.28507,-36.56395 -11.59959,-9.6297 -13.55258,-27.11275 -12.88387,-37.55433 0.66854,-10.44152 19.90559,-19.14725 26.14802,-20.57865 6.24227,-1.43133 17.73007,20.55125 17.73007,20.55125 0,0 4.22918,18.27976 -3.8202,4.02709 -8.04974,-14.25241 -14.41401,16.03979 -13.48702,21.63947 0.92683,5.5998 42.19399,18.67582 56.5969,15.21611 14.40257,-3.45953 39.13469,-41.69418 41.88355,-60.77963 2.74886,-19.08547 -8.14674,-52.4429 -19.71222,-78.38199 -11.56563,-25.93888 -22.89651,-46.52297 -57.70998,-80.82296 -26.64686,-26.25384 -58.63465,-1.05101 -72.19087,12.22798 -0.0662,-0.21711 -0.12753,-0.39403 -0.19023,-0.56027 -0.97202,-11.22435 -6.87406,-23.3647 -17.67628,-37.68845 -18.60791,-24.67431 -51.53992,-24.0211 -63.63751,-29.58692 -10.28781,-4.73325 -40.69214,9.02069 -66.4347,19.14906 33.19143,-2.77546 60.58682,-8.75959 60.58682,-8.75959 0,0 44.73308,5.96613 65.85408,29.77468 9.75287,10.99358 13.83188,22.59308 15.40373,31.90024 l 0.28942,1.87757 c -0.47684,0.54786 -0.80217,0.93156 -0.80217,0.93156 0,0 0.49736,-0.15463 0.89189,-0.27727 -0.0249,-0.19317 -0.053,-0.38874 -0.0794,-0.58457 l 0.0348,0.22954 c 0,0 0.12419,0.12085 0.31374,0.27465 -0.0447,0.0149 -0.22931,0.0679 -0.26987,0.0804 1.21574,9.50099 -0.12084,16.05259 -0.12084,16.05259 2.88065,-4.90117 4.66609,-9.80611 5.40037,-14.837 0.28906,-0.32637 0.52052,-0.80754 0.6639,-1.49723 0.11252,-0.53865 0.18659,-1.05405 0.23411,-1.5489 4.24572,-1.23337 10.5168,-3.01527 20.06785,-5.62041 20.59682,-5.61793 30.78993,1.67336 40.55424,8.43354 9.76447,6.75998 32.47852,47.37774 32.47852,47.37774 0,0 37.37873,36.44191 29.7997,95.16688 -6.89641,53.43568 -56.3315,37.56053 -62.75041,34.60274 -1.14537,-0.0549 -1.33065,-0.62079 -1.33065,-0.62079 0,0 0.69521,0.32815 1.33065,0.62079 1.66657,0.0802 8.46877,0.25384 16.6362,-5.43832 13.78039,-9.60408 -6.28663,-19.51915 -18.51121,-35.13372 -12.22425,-15.61487 -44.62017,24.41927 -44.21851,39.45327 0.40166,15.03387 50.93362,48.64859 106.91544,63.55719 19.07695,5.0804 39.6102,-7.5761 58.3941,-26.4642 z M 164.11036,719.48441 c -17.77445,1.48627 -37.19164,2.0558 -54.9939,0.27844 14.85688,5.43004 30.47403,8.64141 41.96252,4.62161 4.1035,-1.43573 8.50336,-3.11848 13.03138,-4.90005 z m -54.9939,0.27844 C 88.497446,712.2269 69.344008,700.41066 64.746626,697.65372 56.836475,692.91051 33.061484,616.70156 33.11877,601.51261 c 0.0563,-15.18889 12.405213,-28.18592 20.830766,-34.45058 8.425552,-6.26447 27.137761,2.96065 32.172563,6.83896 5.0348,3.87818 -4.738938,27.11636 -4.738938,27.11636 0,0 -11.333187,15.13655 -5.496726,-0.32347 5.836628,-15.46027 -22.233425,-4.13862 -26.041728,0.12356 -3.808469,4.26231 12.935682,48.4068 24.683276,57.23901 11.747428,8.83247 56.460807,3.08998 72.808257,-7.20992 16.34745,-10.29992 35.37523,-40.5517 47.93442,-66.319 12.55902,-25.76705 20.97382,-47.16104 26.59621,-96.13701 4.32535,-37.6795 -35.76465,-46.56545 -54.50401,-48.66551 0.94157,-0.93661 1.58611,-1.66561 1.58611,-1.66561 l -0.15399,-0.0423 c 7.49724,-8.04226 12.93701,-20.12622 17.39515,-36.8694 8.02853,-30.15211 -13.0413,-55.28139 -16.33089,-68.23501 -2.71575,-10.69389 -30.53083,-24.8057 -53.97552,-37.87853 22.02664,22.78863 42.49663,39.11846 42.49663,39.11846 0,0 22.35198,39.25776 17.30674,70.97173 -2.49026,15.65467 -9.68947,26.74937 -16.34283,33.97963 0.048,0.001 0.15232,0.008 0.20613,0.0103 l -0.525,0.6449 c -0.0165,-0.0132 -0.1606,-0.10983 -0.17683,-0.1215 -6.62867,7.04392 -12.57887,10.23284 -12.57887,10.23284 6.00002,-1.01908 11.19244,-3.02597 15.75075,-6.075 0.50895,-0.21468 1.04239,-0.52551 1.57866,-0.88437 3.56276,2.47796 8.96976,6.26938 17.19116,12.1126 17.26104,12.26762 17.66733,24.86723 18.62546,36.78095 0.95812,11.91338 -16.36584,55.86153 -16.36584,55.86153 0,0 -4.8987,52.67889 -54.64705,85.04216 -45.267505,29.44837 -63.974418,-19.14342 -65.760854,-26.00742 -0.680632,-0.91764 -0.36308,-1.42925 -0.36308,-1.42925 0,0 0.186259,0.74985 0.36308,1.42925 0.990571,1.33504 5.062783,6.74359 14.579236,9.33007 16.056563,4.36404 10.096756,-20.21605 14.821456,-39.67022 4.724866,-19.45437 -46.087721,-16.15457 -57.358325,-6.08359 -11.270936,10.0711 -6.414944,66.8447 16.251928,120.19771 7.852867,18.48373 31.122556,26.58524 58.181349,29.28679 z M 158.8474,439.63883 c 0.16557,-0.17543 0.33031,-0.35406 0.49653,-0.53426 -0.78079,-0.0275 -1.33014,-0.0394 -1.33014,-0.0394 0,0 0.7505,0.51759 0.83378,0.57345 z M 115.88322,295.03471 c -13.10687,-13.56031 -26.752989,-29.39489 -36.98236,-45.4747 4.947547,15.69831 12.259186,30.79767 22.9725,37.36702 4.28413,2.62699 9.05619,5.34556 14.00986,8.10768 z m -36.98236,-45.4747 c -6.394414,-20.28956 -8.83731,-41.58187 -9.555693,-46.76085 -1.27418,-9.18591 46.366033,-80.16309 58.393773,-89.5461 12.02739,-9.38339 29.71243,-7.90725 39.72309,-5.09651 10.0105,2.81085 13.9698,23.51746 13.93239,29.92051 -0.0381,6.40302 -24.19967,13.27628 -24.19967,13.27628 0,0 -18.76949,0.41329 -3.054,-4.56069 15.7155,-4.97405 -12.34197,-17.38271 -18.0074,-17.61712 -5.6656,-0.23445 -28.05283,37.84614 -27.92071,52.6507 0.13245,14.80452 31.76511,46.81131 49.75596,53.32325 17.99101,6.51189 53.04654,2.48358 80.93727,-3.59052 27.89075,-6.07406 50.35233,-12.8372 91.88969,-39.60964 31.96743,-20.60427 14.39893,-57.31498 4.60285,-73.14842 -0.0646,-0.008 -0.12586,-0.0236 -0.19106,-0.0333 l 0,-0.28205 c 0.0695,0.11127 0.12913,0.20208 0.1995,0.31527 11.47177,1.6064 25.03973,-1.58168 41.97081,-9.18646 28.45168,-12.77937 35.86811,-44.975995 44.219,-55.548415 7.11528,-9.007907 1.1664,-41.763256 -2.37221,-69.120786 -5.42785,33.011806 -6.29673,61.11628 -6.29673,61.11628 0,0 -16.72362,42.2844 -44.94168,57.704781 -12.2024,6.66824 -23.84669,8.49641 -33.13963,8.42693 l -4.09986,-0.32943 c -0.26093,-0.35158 -0.51606,-0.69347 -0.51606,-0.69347 0,0 0.0414,0.36039 0.0745,0.65769 l -2.32186,-0.18738 0.0348,0.15232 c -8.30751,-0.90957 -13.51549,-3.05055 -13.51549,-3.05055 4.98315,4.49936 10.33318,7.50608 16.24233,9.1015 l 0.0827,0.10331 c 0.29419,4.33963 0.63742,11.00996 0.89305,21.06616 0.54189,21.31982 -8.85767,29.74743 -17.72661,37.86113 -8.86894,8.11362 -53.61029,21.87972 -53.61029,21.87972 0,0 -44.13754,29.18755 -99.66903,9.94895 -50.52997,-17.50587 -23.62151,-63.00479 -19.27925,-68.68574 0.3144,-1.10995 0.90761,-1.17636 0.90761,-1.17636 0,0 -0.47748,0.61424 -0.90761,1.17636 -0.4573,1.61518 -2.2492,8.31536 1.44288,17.46889 6.22918,15.44431 20.57215,-2.31365 38.57161,-11.08265 17.99945,-8.76912 -13.36218,-48.845547 -28.08976,-51.557662 -14.72758,-2.712125 -59.842773,40.745612 -86.908514,92.614642 -9.162643,17.55916 -1.575343,40.04018 12.457531,62.09924 z M 419.21601,-15.054771 c 2.8886,-17.568608 7.06097,-36.510322 13.10257,-53.378364 -8.859,13.228778 -15.74879,27.682053 -14.6539,39.749334 0.38758,4.271402 0.93674,8.877956 1.55133,13.62903 z m 13.10257,-53.378364 c 12.33353,-18.417075 28.48993,-34.455935 32.28911,-38.339425 6.52853,-6.67279 85.75123,-12.67124 100.48925,-9.32702 14.73734,3.34375 27.73114,18.368702 31.57488,28.0409 3.84356,9.672135 -12.58585,25.684393 -17.55889,29.762681 -4.97321,4.078271 -25.05497,-10.676014 -25.05497,-10.676014 0,0 -8.7537,-14.799916 4.63082,-5.422171 13.3847,9.377843 6.29276,-20.587222 3.0679,-25.227336 -3.22485,-4.64005 -49.75761,1.682627 -61.18186,11.207392 -11.42425,9.524881 -14.42823,53.79499 -8.84972,72.146998 5.57851,18.3520259 29.55465,43.483747 51.09437,61.885358 21.53988,18.401529 40.68305,31.791866 86.9875,47.631618 35.56994,12.167804 53.83098,-24.548269 60.39493,-42.239894 l 0.25232,0.111593 c 5.70168,9.689286 16.34548,18.089276 32.26925,26.75963 27.13379,14.774171 57.10419,-0.453645 70.47696,-0.647603 12.02111,-0.174355 35.71066,-28.488565 55.53281,-49.014462 -30.55715,17.886228 -54.67022,37.142578 -54.67022,37.142578 0,0 -43.13986,13.702741 -72.54402,1.466915 -14.50854,-6.037474 -23.42467,-15.520698 -28.74191,-23.581646 -0.0281,0.100329 -0.0977,0.309952 -0.12915,0.422106 l -0.38312,-0.856744 c 0.0199,-0.02451 0.12253,-0.108603 0.14571,-0.128478 -5.16661,-8.018049 -6.75601,-14.488986 -6.75601,-14.488986 -0.60382,6.675094 0.20166,12.638758 2.44123,18.151825 l -0.0928,0.274538 c -3.31443,2.929588 -8.39427,7.366389 -16.18554,14.026815 -16.29001,13.925902 -28.69755,11.763471 -40.46136,9.889783 C 619.59224,68.664112 581.592,42.018042 581.592,42.018042 c 0,0 -49.43974,-16.496947 -67.44019,-72.579252 -16.37925,-51.031215 31.80385,-57.682385 38.89943,-57.935499 1.05514,-0.465185 4.80979,-0.201293 4.80979,-0.201293 0,0 -4.1073,0.17626 -4.80979,0.201293 -1.53478,0.676974 -7.6926,3.390916 -12.50058,12.114319 -8.11247,14.718821 16.98884,14.52349 34.7542,23.335087 17.76551,8.811598 30.08232,-41.136629 23.30744,-54.478207 -6.77472,-13.34143 -66.42925,-21.48138 -123.71919,-11.0782 -19.83573,3.6018 -33.36149,24.452096 -42.5733,50.171107 z M 692.4092,42.683474 c 0.12085,0.186789 0.24371,0.375003 0.36806,0.563448 0.20314,-0.713284 0.33939,-1.21082 0.33939,-1.21082 0,0 -0.38509,0.351774 -0.70745,0.647438 z M 848.73324,28.219157 c 13.10523,-7.670928 27.3785,-15.092914 41.47164,-20.6303018 -13.80341,2.1276305 -26.99869,6.2704888 -34.94112,14.0270468 -2.10863,2.059218 -4.30169,4.295259 -6.53052,6.603255 z M 890.20488,7.5888552 c 22.45113,-3.4606182 46.51537,-1.578255 52.23296,-1.1540142 9.23284,0.6850711 67.25156,62.315642 73.55086,76.05224 6.2992,13.736596 0.7097,30.555869 -4.3678,39.750029 -5.0775,9.19413 -26.13957,8.7857 -32.35766,7.39854 -6.21809,-1.38716 -7.26196,-26.37024 -7.26196,-26.37024 0,0 4.01111,-18.429737 5.15417,-2.01981 1.14305,16.40992 19.80178,-8.38915 21.36123,-13.87655 1.55962,-5.487404 -30.2987,-35.38876 -44.72646,-38.384027 -14.42791,-2.995236 -53.00415,21.116927 -63.55124,37.332311 -10.54692,16.215386 -14.82758,51.355386 -15.47676,79.896766 -0.64934,28.54137 0.86755,51.89985 17.35806,98.07156 12.63336,35.3723 52.15582,25.9133 69.97298,19.55062 -0.0563,0.17555 -0.0944,0.33193 -0.0977,0.44081 -0.001,0.0892 0.0497,0.16125 0.12587,0.22617 -3.89738,10.79985 -3.78579,24.50583 -0.20084,42.21567 6.15799,30.41947 35.85753,43.96278 44.37078,54.19723 7.2637,8.73232 40.5742,9.15739 68.0643,10.93888 -31.062,-11.65564 -58.3396,-17.88525 -58.3396,-17.88525 0,0 -37.52318,-24.58607 -46.309,-55.29928 -3.8179,-13.34667 -2.95449,-25.15857 -0.75828,-34.25314 0.29502,-0.34381 0.3298,-1.18402 0.40132,-1.5619 0.19604,-0.73434 0.39653,-1.45531 0.60646,-2.14992 0.61806,-0.27867 1.03313,-0.47014 1.03313,-0.47014 0,0 -0.49753,-0.0438 -0.86475,-0.0751 2.8924,-9.28663 6.79675,-14.81072 6.79675,-14.81072 -5.53233,3.98253 -9.69164,8.63078 -12.58932,14.12006 0,5.8e-4 0,3.4e-4 0.0165,0.004 -0.0331,0.0526 -0.0613,0.10418 -0.0944,0.15894 0.0266,-0.0536 0.0514,-0.10815 0.0796,-0.16093 -4.29192,-0.5844 -10.89461,-1.59786 -20.80345,-3.39507 -20.89518,-3.78987 -27.00514,-14.76472 -32.85982,-25.11873 -5.85468,-10.35394 -8.9489,-56.92566 -8.9489,-56.92566 0,0 -18.13356,-49.19607 13.61151,-99.41094 28.88579,-45.692177 66.89531,-9.812652 71.39866,-4.368291 1.00546,0.541808 0.9298,1.137425 0.9298,1.137425 0,0 -0.48411,-0.598582 -0.9298,-1.137425 -1.4631,-0.788416 -7.57721,-3.925776 -17.34581,-2.252453 -16.48224,2.823328 -2.54621,20.528454 1.75299,39.971924 4.29919,19.44347 50.64739,-2.89807 56.73319,-16.72397 C 1033.9582,97.422566 1002.1662,44.267328 958.05809,6.8928424 942.20286,-6.5417822 916.5565,-2.7622216 890.20681,7.5909598 Z M 1074.3554,391.85504 c 16.4668,6.17898 33.9828,13.87028 49.0886,22.99597 -10.9713,-11.18406 -23.5586,-20.67071 -35.5625,-21.91146 -4.2209,-0.43625 -8.7972,-0.77803 -13.5261,-1.08451 z m 49.0886,22.99597 c 15.3117,15.60873 27.4692,34.52986 30.449,39.00642 5.115,7.68417 -6.7799,91.07131 -13.5711,104.7312 -6.7912,13.65988 -23.3223,19.90295 -33.6025,21.79027 -10.2802,1.88732 -22.9568,-14.793 -25.7181,-20.53283 -2.7611,-5.73979 16.0154,-22.35072 16.0154,-22.35072 0,0 16.8059,-8.58144 4.7487,2.74449 -12.057,11.32593 18.7387,10.14538 23.9681,7.87575 5.2296,-2.2696 8.7102,-45.72801 2.1805,-58.92984 -6.5295,-13.20183 -49.1587,-27.96801 -68.2836,-25.99912 -19.125,1.96888 -48.9426,20.72105 -71.56263,38.32935 -22.61985,17.60835 -39.94033,33.64514 -65.65359,75.90266 -19.718,32.40472 11.76068,57.56957 27.52122,67.55154 0.0778,-0.0247 0.15398,-0.0468 0.23229,-0.0711 -0.096,0.0369 -0.18278,0.07 -0.21375,0.0822 0,-0.004 -0.0165,-0.006 -0.0182,-0.0116 -10.93218,3.48876 -21.67944,12.19995 -33.54607,26.38946 -20.05958,23.98623 -12.69099,56.05926 -15.64548,69.1695 -2.66193,11.81203 19.44152,41.08599 34.75239,64.83151 -10.26795,-33.74681 -23.43459,-61.50972 -23.43459,-61.50972 0,0 -3.3065,-45.19047 15.37957,-71.42934 9.21778,-12.94334 20.48953,-19.75204 29.55035,-23.33493 -0.0166,-0.004 -0.0281,-0.0169 -0.0381,-0.022 l 0.57152,-0.18827 c -0.17698,0.0686 -0.3548,0.13891 -0.53361,0.20972 0.64305,0.33797 1.09305,0.56682 1.09305,0.56682 0,0 -0.25115,-0.44579 -0.45696,-0.80976 l 0.25729,-0.0848 c 0,0 -3.3e-4,-0.0149 -0.001,-0.0166 8.85535,-3.35105 15.38967,-3.61267 15.38967,-3.61267 -6.25435,-1.90956 -12.2039,-2.38428 -18.04317,-1.42279 -0.0695,-0.001 -0.13576,-0.0149 -0.20828,-0.006 -0.0729,0.006 -0.14569,0.0206 -0.21789,0.029 -2.09935,-3.84637 -5.27436,-9.73685 -10.0171,-18.72703 -9.89925,-18.76396 -4.99806,-30.41111 -0.56309,-41.57221 4.43496,-11.16106 38.85192,-43.17294 38.85192,-43.17294 0,0 26.98159,-45.36621 85.63279,-52.30065 53.3688,-6.30987 48.9709,45.79767 47.5144,52.77885 0.1987,1.13041 -0.3104,1.45041 -0.3104,1.45041 0,0 0.1663,-0.75936 0.3104,-1.45041 -0.2892,-1.64475 -1.6394,-8.34029 -8.9619,-14.91638 -12.3549,-11.0957 -17.5168,10.93227 -29.9791,26.65976 -12.4622,15.72747 33.5128,37.64119 48.0149,33.59293 14.5021,-4.0482 35.7593,-61.62095 37.9123,-119.85172 0.7454,-20.1615 -16.6747,-37.41936 -39.7654,-51.36891 z M 935.49623,805.36067 c 3.98795,13.10695 7.54476,27.09837 9.71264,40.743 1.05896,-12.68543 0.11098,-24.77588 -4.929,-33.12439 -1.47633,-2.44549 -3.10069,-5.00849 -4.78364,-7.61861 z M 915.08682,912.2295 c 7.91512,-9.74801 12.30042,-24.48575 17.56767,-47.65537 7.43945,-32.72503 -20.98722,-38.58977 -44.97049,-84.3492 -23.98344,-45.75936 11.4514,-120.77051 11.95422,-122.28816 2.38445,-4.45503 15.06813,-30.29783 15.06813,-30.29783 0,0 -24.86042,17.37271 -29.09058,25.73914 -4.23033,8.36656 -12.58651,83.73007 -12.37227,107.88076 0.21408,24.15075 50.94354,75.5526 57.13945,84.32677 6.19608,8.77399 -16.22957,58.90497 -16.82113,64.71782 -0.59205,5.8132 -65.91303,40.49395 -73.18343,40.73149 -7.27059,0.23795 -27.48098,-10.58933 -31.89524,-13.78141 -4.41411,-3.19205 1.67054,-19.28251 4.62205,-22.06572 2.95199,-2.78397 17.78537,-4.40493 17.78537,-4.40493 0,0 -14.13469,-0.49084 -20.37431,1.70828 -6.23959,2.19914 -6.00036,17.8695 -5.84424,24.78454 0.15564,6.91519 29.15781,15.40515 35.60024,16.94347 6.4426,1.53815 42.88257,-20.7681 62.47094,-31.90947 1.83626,-1.04445 3.41228,-2.03332 4.76807,-2.98981 2.86658,-2.02243 5.35915,-4.36099 7.57555,-7.09037 z m -7.13415,-0.37998 c 0.92501,-1.12576 1.55979,-2.19886 1.65183,-3.06869 0.67402,-6.36202 10.32524,-26.92845 11.07641,-31.24462 1.95283,-11.22187 -0.7674,-20.30662 -8.51662,-27.73206 -4.39125,-4.20778 -27.32087,-22.50193 -39.38139,-42.78875 -9.22274,-15.51335 -8.97274,-26.96594 -13.44479,-38.97221 -9.15237,-24.57253 -47.23259,-45.3127 -65.70721,-42.11651 -43.33439,7.49687 -46.90098,9.19235 -46.90098,9.19235 0,0 47.45164,-7.51589 60.90686,-0.58527 13.45522,6.93051 35.02987,11.96533 46.44566,40.63648 11.41582,28.67131 -1.43245,4.32364 -1.43245,4.32364 0,0 -12.57226,-22.39853 -32.27305,-22.74661 -19.70081,-0.34808 -125.39538,-4.26409 -146.3364,16.5923 -20.94087,20.85631 -18.9036,25.49642 -18.9036,25.49647 0,0 17.63819,-31.87283 46.02959,-30.73593 28.39126,1.13693 100.81176,-17.67982 123.67433,-0.32434 22.86257,17.35531 65.2155,71.97992 65.2155,71.97992 0,0 24.67433,25.53921 22.23623,42.85201 -2.43825,17.31272 -12.51529,32.79632 -28.5861,40.02789 -16.07064,7.23136 -36.29395,19.27569 -36.29395,19.27569 0,0 -6.42703,5.22763 -14.57279,-3.01854 -6.13695,-6.21275 -9.99558,-13.48413 -10.10039,-17.92328 0,0 1.44554,-4.84829 -0.13907,-5.84951 -1.94753,-1.23062 -6.13482,4.22258 -6.13482,4.22258 -1.43642,1.13007 -1.89603,9.41145 -0.11918,12.35671 3.327,5.51457 17.26351,18.86126 26.7323,16.1286 4.51823,-1.30386 34.25138,-17.221 42.66517,-21.32164 2.29026,-1.1162 10.61381,-5.28237 14.6044,-7.98898 2.13379,-1.44725 5.56974,-4.19004 7.6042,-6.6677 z m 228.97683,-352.5306 c 5.0907,-6.22503 9.8851,-46.36318 13.4944,-67.86234 0.3494,-2.08057 0.7906,-7.98434 0.8643,-9.63594 0.7131,-15.96543 -8.2184,-29.15263 -27.5594,-52.2501 -21.3419,-25.48688 -43.3537,-6.18184 -94.3983,-14.53043 -51.04474,-8.34859 -87.58721,-82.00788 -88.45906,-83.32953 -1.98759,-4.59442 -14.26467,-30.4452 -14.26467,-30.4452 0,1e-5 -2.00912,30.32598 1.89273,38.75327 3.90185,8.42729 57.64608,60.8376 76.8889,75.14013 19.2428,14.30256 91.2128,4.65668 101.9888,4.97666 10.776,0.31996 36.3217,47.65978 40.5722,51.59572 4.2505,3.93594 -9.5212,80.19865 -13.9322,86.04809 -4.4109,5.8494 -24.7396,11.74019 -29.9849,13.37538 -5.2451,1.63515 -14.2013,-12.74328 -14.6063,-16.75573 -0.4051,-4.01245 7.0537,-13.85775 7.0537,-13.85775 0,0 -8.7121,8.03091 -10.7874,14.3254 -2.0752,6.29449 9.7497,18.40328 15.2465,22.52035 5.4968,4.11705 30.2245,-13.46164 35.4982,-17.57255 0.1655,-0.12831 0.3284,-0.29457 0.4925,-0.49542 z m -5.1191,-6.15217 c 0.9068,-1.05623 1.6167,-2.16365 2.0708,-3.31272 1.7331,-4.38648 7.0533,-33.46101 9.1827,-42.57348 0.5799,-2.48052 2.4685,-11.4899 2.8871,-16.27948 0.3255,-3.72526 0.1241,-11.20224 -1.8584,-13.14493 -4.5295,-4.44043 -14.6982,-24.44621 -17.5802,-27.69299 -7.4929,-8.44149 -16.4269,-11.80602 -27.1283,-10.32842 -6.0641,0.8373 -34.7842,5.47035 -58.3052,2.9692 -17.9864,-1.91261 -26.8275,-8.16023 -39.0046,-12.08049 -24.92183,-8.02337 -65.33717,10.15055 -74.17812,26.78909 -20.73739,39.02768 -21.84584,41.26668 -21.84567,41.26658 0,0 23.43905,-42.04899 37.37806,-48.30319 13.939,-6.25423 31.2017,-19.81734 60.96663,-11.77077 29.7647,8.04655 2.4722,4.2839 2.4722,4.2839 0,0 -25.63907,-3.92412 -38.0471,11.57837 -12.4082,15.50251 -82.15121,97.33243 -78.42966,126.46164 3.72137,29.12928 8.90867,29.00148 8.90867,29.00148 0,0 -14.35639,-33.51292 4.48595,-55.08391 18.84218,-21.57086 48.68509,-89.48116 76.53427,-97.36073 27.84917,-7.87958 97.34087,-6.74643 97.34087,-6.74643 0,0 35.3875,-6.76835 47.6223,5.50229 12.235,12.27065 18.0095,33.1223 13.4732,50.15884 -4.5362,17.03654 -7.5351,40.17228 -7.5351,40.17228 0,0 0.1408,8.24044 -11.4459,9.57436 -8.7294,1.005 -16.8453,-0.42702 -20.3767,-3.06676 0,0 -2.8684,-4.10666 -4.6516,-3.47769 -2.1917,0.77307 0.045,4.47487 0.045,4.47487 0.018,1.81942 5.6368,10.19683 9.0591,10.60845 5.6069,0.67445 21.6134,-4.22544 27.9603,-11.61936 z M 650.86588,821.95391 c -1.8e-4,8e-5 -28.99638,-8.89095 -38.10952,-6.8652 -9.11314,2.02565 -72.74486,42.33237 -91.28404,57.98722 -18.5392,15.65481 -29.3396,87.41625 -32.51297,97.78823 -3.1732,10.37188 -55.99656,24.29795 -60.9279,27.4598 -4.93131,3.16194 -71.61303,-26.07789 -76.21423,-31.6668 -4.60119,-5.58901 -5.33067,-26.71232 -5.64043,-32.18761 -0.3096,-5.4753 15.79563,-11.04625 19.78788,-10.55847 3.99239,0.48776 11.70107,9.94003 11.70107,9.94003 0,0 -5.64424,-10.27465 -11.24644,-13.68363 -5.60235,-3.40898 -20.16619,5.46547 -25.49851,9.92306 -5.33249,4.45768 5.62769,32.42933 8.33151,38.47723 2.70382,6.0479 42.20575,20.2878 62.83071,28.80978 1.93363,0.7989 7.56281,2.5758 9.14758,3.01125 15.31782,4.2105 30.41561,-1.35126 57.5287,-15.15858 29.91808,-15.23581 14.31216,-41.49295 35.91529,-88.97734 21.60329,-47.48443 102.30034,-66.77106 103.80367,-67.30702 4.95566,-0.84936 32.38763,-6.99195 32.38763,-6.99195 z M 783.92967,638.66375 c 1.31922,-1.60728 2.49422,-3.34379 3.46889,-5.21751 10.39626,-19.98606 14.69547,-42.23131 7.53399,-43.8872 -7.16147,-1.65586 -10.62672,-8.00194 -11.42225,-13.73313 -0.79554,-5.73133 6.56361,-3.53366 14.37857,-6.07985 7.81479,-2.54609 11.73451,-4.73122 20.43027,-11.87607 8.69591,-7.14491 17.04349,-19.70359 18.56137,-29.15498 1.51773,-9.4514 1.29191,-40.09514 0.58411,-46.24669 -0.70794,-6.15163 -7.02836,31.5623 -7.02836,31.5623 0,0 -2.21656,34.49629 -16.64034,41.3779 -14.42376,6.88161 -25.47765,17.62901 -33.08316,10.08432 -7.6055,-7.5447 -22.16951,-4.31815 -22.16951,-4.31815 0,0 22.17382,7.97975 22.17895,19.81902 0,11.83922 18.87579,13.81809 9.53334,32.30845 -9.34228,18.49032 -27.04356,39.58573 -36.68766,42.06601 -8.73995,2.24775 17.60674,-1.16857 30.36179,-16.70442 z m -21.52994,4.56187 c 2.47336,-3.00762 4.35565,-5.42858 5.18431,-6.70333 3.31457,-5.09897 -26.36177,19.41639 -26.36177,19.41639 0,0 -24.12134,24.3662 -39.9251,20.11179 -15.80374,-4.2544 -31.38778,-3.22243 -32.42257,-13.689 -1.03476,-10.46658 -14.60207,-17.34299 -14.60207,-17.34299 0,0 12.22143,20.17693 4.51823,28.94595 -7.70302,8.76893 5.94475,22.35238 -13.40422,30.13666 -19.34881,7.7843 -46.54848,12.22249 -55.82619,8.04617 -9.27755,-4.17632 19.58505,13.45466 40.68967,5.12578 21.10461,-8.32894 39.11218,-22.22631 34.41976,-27.93958 -4.69258,-5.71331 -3.42105,-12.58124 -0.4293,-17.4083 2.99174,-4.8271 7.56312,1.59568 15.42692,4.56288 7.86362,2.9672 12.06398,3.93747 23.55677,4.29695 11.49262,0.35943 26.09289,-3.77353 33.47935,-9.75024 5.53995,-4.48258 18.27612,-18.78624 25.69621,-27.80913 z M 468.58238,974.6942 c 3.42173,-4.32066 5.43962,-9.4745 6.09625,-15.52831 0.66143,-6.09883 3.14587,-35.13003 11.29097,-57.52392 6.22851,-17.12476 14.43966,-24.31833 21.20063,-35.33839 13.83684,-22.55366 6.06295,-66.06199 -7.93217,-78.34072 -32.82704,-28.80135 -34.61232,-30.60572 -34.61232,-30.6057 0,0 34.98417,32.33091 37.66102,47.30048 2.67667,14.96945 11.77475,35.10569 -3.91145,62.01268 -15.68652,26.90712 -4.27022,1.55998 -4.27022,1.55998 0,0 10.05418,-24.19675 -1.97023,-39.70516 -12.02424,-15.50841 -74.55594,-101.94952 -103.73908,-104.63475 -29.18298,-2.68533 -30.42339,2.40738 -30.42339,2.40738 0,0 36.23452,-6.71458 52.6131,16.38052 16.37876,23.09488 75.73361,67.49721 75.90331,96.41221 0.16987,28.91486 -17.22512,96.40944 -17.22512,96.40944 0,0 -2.04619,36.00351 -16.93206,45.24054 -14.88586,9.23716 -36.5754,10.08416 -51.99901,1.90648 -15.42362,-8.17762 -37.08982,-16.2657 -37.08982,-16.2657 0,0 -7.99723,-1.68611 -6.46791,-13.27949 1.15216,-8.73454 4.51888,-16.33375 7.9411,-19.19697 0,0 4.6838,-1.89367 4.50797,-3.77106 -0.21605,-2.30771 -4.35118,-0.94125 -4.35118,-0.94125 -1.77005,-0.38237 -11.23848,3.25392 -12.47128,6.50118 -2.30829,6.0804 -0.92848,27.01341 7.10568,32.57971 3.8338,2.65599 30.69557,14.31855 39.01765,18.40327 2.26541,1.11185 10.54543,4.9762 15.09065,6.43945 3.53529,1.13799 10.84909,2.63248 13.21731,1.12759 5.41311,-3.43968 27.34339,-8.84886 31.19573,-10.9464 4.38183,-2.38599 7.89278,-5.24273 10.55387,-8.60309 z M 839.40719,506.22974 c 3.53926,-4.48375 14.76565,-22.43485 10.85504,-39.24298 -5.21428,-22.41075 -16.38686,-42.97445 -22.73361,-39.62313 -6.34656,3.35131 -12.97359,0.62693 -17.32345,-3.33915 -4.35003,-3.96618 2.67982,-7.04162 6.77472,-14.07741 4.09489,-7.03571 5.66874,-10.90242 7.73316,-22.0442 2.06443,-11.14178 0.10932,-26.89072 -4.88181,-35.3206 -4.9916,-8.42984 -24.55083,-32.72745 -29.06047,-37.13217 -4.50962,-4.40481 14.88934,29.60237 14.88934,29.60237 0,0 20.64087,29.19831 14.07608,43.69552 -6.56476,14.49722 -7.8123,29.9329 -18.33968,28.67586 -10.52756,-1.25706 -19.31702,10.53284 -19.31702,10.53284 0,0 21.77879,-7.57897 29.35749,1.83625 7.57868,9.41525 23.02018,-1.00361 27.9477,19.5746 4.92751,20.57825 5.38712,48.15817 -0.10931,56.31532 -1.37401,2.03931 -1.04802,2.04148 0.13245,0.54688 z M 612.77291,706.71697 c 0.64703,-1.37956 -33.38218,-1.98036 -33.38218,-1.98036 0,0 -34.5431,2.95765 -44.57594,-10.06204 -10.03286,-13.01971 -23.08575,-22.21035 -17.13224,-30.65635 5.95351,-8.44607 -1.09372,-22.42227 -1.09372,-22.42227 0,0 -2.81772,22.83921 -14.52343,24.7314 -11.70571,1.89217 -9.86016,20.76109 -30.16444,14.16584 -20.30444,-6.59525 -44.67596,-19.78569 -49.4149,-28.75161 -4.73893,-8.96582 7.25055,22.60451 29.43282,29.43743 22.18226,6.83282 44.94863,7.60105 44.94085,0.35991 -0.0165,-7.24115 5.46494,-11.60839 10.9514,-13.29164 5.48628,-1.68338 4.98547,5.8743 9.27788,13.09386 4.29241,7.2196 7.02306,10.42053 15.86335,18.01997 8.84028,7.5994 23.62498,13.76022 33.3229,13.83721 9.69808,0.077 39.93817,-4.61103 45.88556,-6.19423 0.37168,-0.0991 0.56922,-0.19506 0.61226,-0.28699 z m 290.3044,-404.20769 c 0,0 -34.00834,-8.31529 -39.46732,-36.21785 -5.45881,-27.90254 -39.96979,-94.83956 -27.89389,-121.24864 12.07558,-26.40907 56.25865,-80.577798 56.25865,-80.577798 0,0 19.70228,-30.106093 37.05422,-31.771948 17.35178,-1.665855 34.79609,4.543556 45.19136,18.574609 10.39559,14.031103 26.66407,30.923929 26.66407,30.923879 0,0 6.5459,5.029451 0.2126,14.905529 -4.77156,7.440669 -11.04726,12.897999 -15.34581,14.028039 0,0 -5.01707,-0.29399 -5.66245,1.48741 -0.79321,2.18958 3.50616,2.72676 3.50616,2.72676 1.42615,1.10838 11.55139,1.91857 14.04926,-0.50049 4.67704,-4.5293 12.24444,-24.255748 7.40434,-32.764401 -2.3096,-4.06011 -21.73937,-26.428651 -27.48792,-33.701248 -1.56475,-1.979681 -7.46064,-9.134117 -10.92954,-12.404783 -2.69787,-2.543826 -8.73201,-7.130429 -11.50123,-6.768688 -6.33018,0.826843 -28.50103,-3.796085 -32.85684,-3.519444 -11.32541,0.719343 -19.63292,5.49959 -25.22086,14.815298 -3.16641,5.278891 -17.64167,30.688877 -34.4201,47.651129 -12.83054,12.971037 -23.23493,15.971307 -33.96678,23.160587 -21.96438,14.71381 -34.08615,56.72055 -27.09455,74.03313 16.39978,40.60874 18.94798,43.34222 18.94798,43.3422 0,0 -17.44234,-44.23358 -13.53403,-59.00921 3.90847,-14.77566 4.25101,-37.02297 29.728,-54.90471 25.477,-17.88175 4.50566,0.38639 4.50566,0.38639 0,0 -19.29863,17.84564 -15.0135,37.07862 4.28513,19.23296 23.43591,124.27372 48.46405,139.31786 25.02799,15.04418 28.40831,10.95777 28.40847,10.95779 z M 1005.9818,120.50333 c 5.2345,-6.6334 8.3486,-28.398584 8.4876,-34.224008 0.159,-6.657574 -29.70861,-36.981003 -44.64977,-53.535516 -1.40067,-1.55198 -5.80169,-5.680716 -7.04358,-6.752015 -12.00504,-10.356094 -25.4149,-9.352611 -55.67818,-8.987625 -33.39376,0.40275 -33.14078,29.539582 -72.5725,63.72979 -39.43156,34.190214 -119.77777,16.776339 -121.35907,16.63408 -4.82951,-1.306345 -32.65916,-7.858325 -32.65916,-7.858325 0,0 22.12663,20.456089 31.14771,22.657979 9.02093,2.20187 84.03798,-6.98104 107.47738,-12.864178 23.43938,-5.883182 62.72177,-67.522146 69.94681,-75.63763 7.22487,-8.1155 60.92209,2.088044 66.70077,1.308982 5.77852,-0.779012 53.82669,54.88162 55.56829,61.938128 1.7415,7.056435 -6.5713,26.608958 -8.6384,31.715688 -2.0672,5.1067 -18.97871,3.19912 -22.35572,1.03931 -3.377,-2.1598 -6.32587,-14.10424 -6.32587,-14.10424 0,0 0.74305,11.80391 4.31642,17.31009 3.57321,5.50615 18.61237,1.36936 25.26717,-0.54586 0.832,-0.23941 1.6222,-0.87701 2.3701,-1.82465 z m -198.45396,214.6426 c 0.5404,0.15928 -0.81606,-26.71083 -16.62461,-39.63262 -18.06701,-14.7676 -39.8112,-24.25085 -42.46701,-17.60068 -2.65582,6.65017 -9.46926,8.68417 -15.2607,8.1008 -5.79141,-0.58342 -2.33759,-7.27035 -3.74969,-15.45141 -1.41209,-8.18098 -2.64156,-12.40438 -8.23432,-22.56282 -5.59292,-10.15844 -16.57313,-21.31158 -25.64885,-25.03549 -9.07556,-3.72389 -39.3135,-11.00071 -45.50543,-11.76715 -6.19209,-0.76644 29.94457,14.49676 29.94457,14.49676 0,0 33.6499,10.45283 38.02144,26.11936 4.37138,15.66657 13.17145,28.9164 4.45102,34.5225 -8.72058,5.60613 -7.90633,20.49838 -7.90633,20.49838 0,0 11.60405,-19.70591 23.29567,-16.91223 11.69164,2.79363 16.84216,-15.20247 33.57141,-1.771 16.72942,13.43146 34.85786,35.18991 35.80207,45.15402 0.11752,1.24552 0.2336,1.81886 0.31076,1.84158 z M 423.33275,646.44017 c 0.57584,-1.25376 -23.30793,-24.68373 -23.30793,-24.68373 0,0 -27.77253,-22.14796 -25.73444,-38.05394 2.03826,-15.90603 -1.23246,-31.20559 9.11364,-32.95933 10.34626,-1.75376 14.94248,-16.35021 14.94248,-16.35021 0,0 -18.04151,13.88534 -28.07932,7.12394 -10.03781,-6.76139 -21.58921,7.55559 -32.12754,-11.00967 -10.53814,-18.56525 -19.05095,-45.07132 -16.17609,-54.52728 2.87502,-9.45602 -10.56779,20.25966 0.7649,40.52071 11.3327,20.26108 27.9492,37.02431 33.01347,31.98974 5.06443,-5.03459 12.14462,-4.26697 17.40606,-1.64971 5.26147,2.61734 -0.50611,7.56893 -2.37069,15.54325 -1.8646,7.97425 -2.22073,12.17442 -0.9616,23.55117 1.2591,11.37675 7.43944,25.49863 14.46681,32.38373 7.0272,6.88509 32.84889,24.86255 38.34728,27.93502 0.42931,0.2404 0.65413,0.29257 0.70297,0.18631 z m -86.17771,91.12031 c 0,-10e-6 -11.14693,-28.03653 -18.29482,-33.93104 -7.1479,-5.89445 -78.61559,-29.75193 -102.19919,-34.41599 -23.5836,-4.66399 -85.07076,34.70576 -95.01635,39.01003 -9.94543,4.30422 -53.60482,-27.45896 -59.140949,-29.19648 -5.536129,-1.73771 -24.723507,-72.42989 -23.345022,-79.60424 1.378653,-7.17454 16.41236,-24.83885 20.503446,-28.53512 4.091253,-3.69648 18.44168,5.44883 20.50295,8.89264 2.061439,3.44399 0.349672,18.28782 0.349672,18.28782 0,0 3.617243,-13.74223 2.853992,-20.29373 -0.763415,-6.55146 -16.104576,-9.413 -22.88409,-10.62693 -6.779516,-1.21372 -21.481765,25.53074 -24.409267,31.5425 -2.927338,6.01164 10.661989,45.98494 17.167001,67.39804 0.609771,2.00751 1.222854,3.74873 1.85382,5.26754 6.099211,14.68172 20.184735,22.78399 47.580947,35.3385 30.23049,13.85307 42.23936,-12.90714 92.24265,-27.16284 50.00347,-14.25595 114.8933,36.04692 116.25093,36.85915 3.77138,3.27202 25.98146,21.17368 25.98146,21.17368 l 0,0 z M 675.14501,216.56707 c 0.35548,-0.29358 -18.13008,-21.4336 -38.25141,-21.62145 -22.99584,-0.21464 -44.6733,5.47637 -42.57578,12.48649 2.09737,7.01013 -1.83146,12.80077 -6.54789,15.98824 -4.71658,3.18743 -6.41842,-4.25942 -12.56133,-10.04027 -6.14276,-5.78086 -9.96299,-8.27979 -20.62746,-12.90894 -10.66448,-4.62917 -25.86822,-6.61957 -35.09477,-3.97299 -9.22689,2.64646 -37.09759,15.93554 -42.19978,19.27672 -5.10235,3.3412 32.16959,-7.34533 32.16959,-7.34533 0,0 31.90169,-12.71433 45.13804,-2.91649 13.23651,9.79783 28.29059,14.87054 25.31423,24.82041 -2.97634,9.94996 7.21678,21.39209 7.21678,21.39209 0,0 -3.90002,-22.92074 6.64938,-28.08213 10.54941,-5.16133 3.29638,-22.86678 24.44553,-22.3109 21.14915,0.55583 48.60926,6.51607 55.56907,13.96263 0.87004,0.93081 1.3048,1.31392 1.35564,1.272 z M 256.08,625.32469 c 7.5325,-9.46506 12.52988,-19.46941 12.94048,-27.08307 2.37006,-43.96048 1.48197,-47.9146 1.48197,-47.9146 0,0 -3.23942,48.14981 -13.00803,59.94698 -9.76845,11.79699 -19.52711,31.94422 -50.03692,37.37677 -30.50948,5.43257 -4.13546,-2.77449 -4.13546,-2.77449 0,0 24.9341,-7.34143 29.6742,-26.57739 4.73977,-19.2358 32.4522,-124.14765 16.16185,-148.41119 -16.29032,-24.26345 -20.66387,-21.90379 -20.66387,-21.90379 0,0 27.30548,23.54855 19.90146,51.15496 -7.40402,27.60611 -5.12089,102.39448 -27.14918,121.33409 -22.0283,18.93958 -84.78202,49.50476 -84.78202,49.50476 0,0 -30.37801,19.11452 -46.713053,13.2697 -16.335373,-5.84458 -29.081151,-18.6496 -32.561969,-35.83687 -3.480983,-17.18728 -10.696262,-39.30362 -10.696262,-39.30362 0,0 -3.669065,-7.31868 6.178351,-13.67387 7.419255,-4.78803 15.367486,-7.13293 19.720661,-6.35809 0,0 4.407148,2.37522 5.734639,1.02 1.631634,-1.66577 -2.758959,-6.84175 -2.758959,-6.84175 -0.78411,-1.63171 -8.759162,-3.71968 -12.025409,-2.55992 -6.115769,2.17149 -22.22316,13.18878 -21.655111,23.0116 0.271029,4.68716 8.029358,33.11522 9.937318,42.22773 0.519375,2.48069 4.098206,15.11295 5.849542,19.56207 1.361929,3.46051 4.747878,10.11242 7.396241,10.95578 6.053185,1.92761 23.865554,15.37523 27.90515,16.9748 10.503051,4.15858 18.517671,0.54873 27.636601,-5.3358 5.16759,-3.33458 29.35881,-19.72745 51.8361,-27.48592 17.18869,-5.93335 28.24688,-3.40919 40.95491,-5.37449 15.44215,-2.38758 31.86775,-15.07083 42.87677,-28.90438 z M 665.72211,110.22037 c 0.83079,-1.09379 0.72301,-1.64024 0.72301,-1.64024 0,0 -28.3169,21.16624 -53.39985,8.05658 -25.08312,-13.10964 -98.60926,-28.163749 -111.62756,-53.810289 -13.01829,-25.646674 -25.19056,-94.111299 -25.19056,-94.111299 0,0 -13.37211,-33.286345 -3.72436,-47.934753 9.64791,-14.648308 28.79769,-24.901619 46.3061,-24.120439 17.50855,0.78126 40.48023,-1.35286 40.48023,-1.35286 0,0 7.93184,-1.94792 11.47541,9.131206 2.66972,8.347124 2.84222,16.621351 0.94834,20.659969 0,0 -6.36329,3.834662 -5.36608,5.423843 1.22582,1.953326 7.22917,-1.11979 7.22917,-1.119824 1.7727,-0.413348 5.7118,-7.748676 5.3676,-11.187788 -0.64439,-6.439215 -7.38434,-24.635246 -17.06088,-26.207306 -4.61725,-0.75014 -33.8297,0.38212 -43.13787,0.25553 -2.53379,-0.0344 -11.64941,0.0761 -16.40756,0.69634 -3.70085,0.48232 -10.93153,2.31242 -12.45007,4.67558 -3.47106,5.401544 -21.03425,19.739286 -23.6548,23.266331 -6.81379,9.170242 -8.39243,18.694113 -4.90385,28.882259 1.97651,5.772886 11.9923,32.973263 14.04481,56.6016808 1.56954,18.0686782 -2.83893,28.1210952 -4.33927,40.9181842 -3.07088,26.191032 22.3879,61.900755 40.32974,67.004195 42.08438,11.9708 44.56089,12.37439 44.56089,12.37439 0,0 -44.38341,-14.18516 -53.4512,-26.30724 -9.06777,-12.122067 -26.25313,-26.115771 -24.08624,-57.066406 2.16772,-30.949789 3.70632,-3.37825 3.70632,-3.37825 0,0 1.0611,25.984327 18.57495,34.833971 17.51387,8.849678 111.47159,59.208905 139.12856,49.052365 17.28572,-6.34787 23.37317,-10.71328 25.50846,-13.09386 0.16224,-0.17742 0.29834,-0.34536 0.41192,-0.50581 z M 331.03563,498.89228 c 1.11243,-1.70712 -3.13198,-33.47339 -3.13198,-33.47339 0,0 -8.00668,-33.91543 3.62718,-44.73618 11.63385,-10.82086 18.86965,-24.42737 28.29605,-19.35933 9.42638,5.06796 22.25495,-2.36207 22.25495,-2.362 0,0 -23.30182,-1.19304 -26.84804,-12.62351 -3.54637,-11.43037 -22.20659,-8.30696 -18.44399,-28.81875 3.76244,-20.51185 13.76896,-45.4606 22.10611,-50.74048 8.33698,-5.27985 -21.82896,8.66474 -25.57567,31.04606 -3.74671,22.38122 -1.32632,44.94139 5.93183,44.42959 7.258,-0.51183 12.41399,4.59265 14.87527,9.89427 2.46111,5.30151 -5.1646,5.33853 -11.79627,10.08237 -6.6315,4.7439 -9.66597,7.95501 -15.80193,17.37659 -6.13581,9.42166 -10.3047,23.86791 -9.01099,33.45194 1.29372,9.58389 10.42573,39.62103 12.98916,45.3299 0.24024,0.53523 0.41341,0.67949 0.52832,0.50297 z M 455.95316,287.74896 c 0,0 -17.14761,-15.91681 -12.70372,-26.74656 4.44408,-10.82971 -12.26001,-19.92729 3.80583,-33.001 16.06583,-13.07376 40.64446,-25.28321 50.64023,-23.84497 9.99592,1.43829 -22.48243,-7.36622 -40.08651,6.69695 -17.60393,14.06318 -30.63663,32.88932 -24.51773,37.05512 6.11875,4.16581 6.93681,11.17452 5.53034,16.71021 -1.40647,5.53566 -7.62522,0.65216 -15.93784,0.0827 -8.31264,-0.5693 -12.62046,-0.28191 -23.5808,2.75824 -10.96033,3.04015 -23.67697,11.31608 -28.83512,19.28355 -5.15831,7.96738 -17.10392,35.98343 -18.83142,41.84559 -1.72766,5.86218 19.04086,-25.98886 19.04086,-25.98886 0,0 15.66516,-30.58713 31.86163,-31.13682 16.19646,-0.54969 30.65766,-6.06924 34.73086,3.7455 4.07337,9.81477 18.88339,12.54025 18.88339,12.54025 z m -249.08474,151.4526 c 0,-4e-5 15.01135,-26.68351 15.05789,-36.01793 0.0463,-9.3343 -25.21161,-79.70782 -36.36482,-100.98239 -11.15239,-21.27544 -78.69505,-46.13998 -88.103058,-51.31191 -9.408175,-5.17188 -11.014973,-59.93891 -12.990648,-65.40436 -1.975676,-5.46552 42.060536,-65.37696 48.554616,-68.73662 6.49426,-3.35951 27.32022,0.17382 32.72257,0.99573 5.40202,0.82212 7.06279,17.79396 5.67586,21.60175 -1.38725,3.80783 -12.42193,9.48712 -12.42193,9.48712 0,0 11.36316,-3.49078 15.96285,-8.27646 4.59969,-4.78575 -0.53113,-21.01695 -3.64274,-27.15492 -3.11128,-6.13774 -33.06544,-0.96303 -39.57309,0.44567 -6.50751,1.40864 -29.76527,37.63722 -42.710722,56.12639 -1.21375,1.73333 -4.273373,6.96964 -5.053345,8.43474 -7.540945,14.16265 -3.56658,26.93843 3.1381,56.44 7.398228,32.55351 35.853057,25.489 77.360437,56.08732 41.50739,30.59831 42.47213,113.53076 42.66122,115.11053 -0.27137,5.02607 -0.27319,33.15534 -0.27319,33.15534 z M 311.13599,269.89902 c 0,0 -39.35323,27.49979 -54.54639,27.13507 -15.19331,-0.36478 -36.86315,4.52671 -59.6027,-16.20487 -22.73973,-20.73173 -0.57053,-4.49613 -0.57053,-4.49613 0,0 21.36438,14.67767 39.17095,5.99009 17.8064,-8.68747 115.74877,-51.52726 125.27747,-79.4612 9.52855,-27.93404 4.75898,-30.19486 4.75898,-30.19486 0,0 -1.75828,36.64509 -28.05366,47.79986 -26.29538,11.15482 -82.78383,59.84317 -111.01083,54.22452 -28.227,-5.61878 -90.16416,-36.13203 -90.16416,-36.13203 0,0 -33.47324,-12.19662 -38.745793,-28.76802 -5.272551,-16.57109 -2.989093,-34.98413 8.459333,-48.44029 11.44841,-13.45619 24.4884,-33.27125 24.4884,-33.27125 0,0 3.55251,-7.5755 14.49364,-3.70553 8.24327,2.9156 14.87608,7.767 16.88256,11.70261 0,0 0.77401,4.97298 2.64256,5.18523 2.29687,0.26097 1.91062,-4.06816 1.91062,-4.06816 0.77666,-1.65416 -0.51971,-11.73635 -3.39905,-13.60988 -5.39124,-3.50845 -26.27234,-6.27735 -33.52339,0.45286 -3.45995,3.21146 -21.15675,27.40304 -27.01457,34.7298 -1.59472,1.9943 -7.295583,9.4071 -9.744273,13.56531 -1.904318,3.23409 -5.065762,10.17548 -4.130326,12.79733 2.138425,5.99335 2.403658,28.68777 3.588435,32.88141 3.07949,10.90272 9.540294,17.8845 19.774464,21.17213 5.79937,1.86277 33.55387,10.08087 53.57403,22.52296 15.30903,9.51514 20.47695,19.00097 29.71857,27.81776 18.91404,18.04479 62.20339,19.99447 77.56971,9.10534 36.04363,-25.54156 38.19612,-28.73018 38.19595,-28.73006 z M 583.11924,-66.163087 c 3.7083,-4.575593 6.85088,-11.639166 8.60005,-15.613315 2.79837,-6.358651 -15.66152,-26.628138 -20.69516,-30.909838 -5.03364,-4.28161 -46.70958,0.0366 -69.09864,1.15628 -2.09901,0.10497 -7.91346,0.96582 -9.54078,1.2486 -15.73074,2.73364 -26.88081,14.45119 -45.74269,38.405404 -20.81322,26.432244 2.22385,43.956266 3.85482,95.860566 1.63081,51.904414 -62.97723,104.01036 -64.0938,105.15797 -4.08776,2.96681 -26.76045,20.76819 -26.76045,20.76819 0,0 29.8214,-4.79369 37.27393,-10.47999 7.45254,-5.68642 48.00612,-70.000358 58.28631,-91.971347 10.28021,-21.970924 -12.91415,-90.571955 -14.6645,-101.219161 -1.75017,-10.647122 39.62014,-46.028499 42.65211,-51.047352 3.0323,-5.01881 79.75037,-8.121 86.31448,-5.06358 6.56395,3.05732 16.16284,21.696418 18.77677,26.486217 2.61409,4.789949 -9.61363,16.73372 -13.45257,18.0029 -3.8391,1.269197 -14.82643,-3.890357 -14.82643,-3.890357 0,0 9.46067,6.78281 16.0074,7.451673 2.45498,0.250779 4.88364,-1.597809 7.10915,-4.34286 z"
       id="path4359"
       inkscape:connector-curvature="0" />
    <g
       transform="matrix(1.65564,0,0,1.65564,-34.940784,-367.63618)"
       style="font-style:normal;font-weight:normal;font-size:113.37552643px;line-height:125%;font-family:sans-serif;letter-spacing:0px;word-spacing:0px;fill:#000000;fill-opacity:1;stroke:none;stroke-width:1px;stroke-linecap:butt;stroke-linejoin:miter;stroke-opacity:1"
       id="text4626">
      <path
         inkscape:connector-curvature="0"
         d="m 281.8824,483.73996 1.69625,0 -4.8713,-11.56935 c 3.04457,-3.74046 3.91444,-8.78574 2.52264,-13.3091 -1.3918,-4.30588 -4.82781,-7.78539 -9.1337,-9.17719 -1.52228,-0.52192 -3.17504,-0.73939 -4.8713,-0.6959 l 7.91587,18.74583 c -0.43494,0.73939 -1.00036,1.3918 -1.69626,2.0442 l -6.82852,-16.17969 0,30.1412 1.56577,0 0,-22.3993 2.34867,5.5672 0,16.8321 1.56577,0 0,-7.04599 c 0.7394,-0.21747 1.47879,-0.56542 2.17469,-0.91337 l 3.34902,7.95936 1.69626,0 -4.30588,-10.26453 c -0.91337,0.6524 -1.87024,1.21782 -2.91409,1.56577 l 0,-2.56613 c 3.82746,-1.73975 6.21962,-5.95865 5.87167,-10.13405 -0.34796,-4.17541 -3.26204,-7.69841 -7.17648,-8.95973 l -1.13084,-2.65312 c 4.26239,0.60892 7.87238,3.56649 9.61213,7.39395 1.73975,4.04492 1.30481,8.78574 -1.26132,12.39573 -0.34795,0.47843 -0.7394,0.86987 -1.13084,1.34831 l 5.00179,11.8738 z m -9.78611,-27.22711 0,-0.82638 c 0.60892,0.30445 1.21783,0.78288 1.78325,1.3483 2.21818,2.21819 3.13155,5.6542 2.13119,8.78575 l -3.91444,-9.30767 z"
         style="font-style:normal;font-variant:normal;font-weight:normal;font-stretch:normal;font-size:43.49378967px;font-family:'Metropolis 1920';-inkscape-font-specification:'Metropolis 1920, ';text-align:center;text-anchor:middle"
         id="path4156" />
      <path
         inkscape:connector-curvature="0"
         d="m 298.53576,448.98842 c -0.21747,0.60891 -0.30446,1.13084 -4.30588,14.7009 l -1.17434,-4.34938 c 2.65312,-9.65562 2.78361,-10.00357 2.91409,-10.35152 l -1.56578,0 -0.17397,0.65241 -1.91373,7.0025 -1.82674,-6.52407 -0.30446,-1.13084 -1.78324,0 3.13155,10.35152 -1.17433,4.34938 -3.65348,-12.5697 -0.60891,-2.1312 -1.52229,0 0.69591,2.52264 4.34937,14.87488 0.087,0.34795 0,2.0877 0,14.91837 1.47879,0 0,-12.09127 0,-5.13227 0,-0.30446 1.13084,-3.87094 1.08734,3.87094 0,0.30446 0,3.34902 0,13.87452 1.47879,0 0,-13.17862 0,-3.82745 c 4.69733,-16.35367 5.00179,-17.04957 5.17576,-17.74547 l -1.52228,0 z"
         style="font-style:normal;font-variant:normal;font-weight:normal;font-stretch:normal;font-size:43.49378967px;font-family:'Metropolis 1920';-inkscape-font-specification:'Metropolis 1920, ';text-align:center;text-anchor:middle"
         id="path4158" />
      <path
         inkscape:connector-curvature="0"
         d="m 310.77858,449.1189 c -3.82745,0.6959 -6.78503,4.08842 -6.78503,8.04635 l 0,7.13299 0,19.44172 1.56578,0 0,-12.22176 2.34866,1.34831 0,10.87345 1.56578,0 0,-10.00357 5.34974,3.08806 0,6.91551 1.56577,0 0,-7.82888 c -2.30517,-1.34831 -4.61034,-2.60963 -6.91551,-3.95794 l 0,-2.69661 c 2.30517,1.34831 4.61034,2.60963 6.91551,3.95793 l 0,-16.04921 c 0,-2.26167 -1.91372,-4.26239 -4.26239,-4.26239 -2.30517,0 -4.2189,2.00072 -4.2189,4.26239 l 0,13.87452 -2.34866,-1.3483 0,-12.52622 c 0,-3.60998 2.95758,-6.61105 6.56756,-6.61105 3.60999,0 6.61106,3.00107 6.61106,6.61105 l 0,26.57471 1.56577,0 0,-26.57471 c 0,-5.08877 -4.65383,-8.87273 -9.52514,-8.04635 z m -1.30481,8.04635 c 0,-1.52228 1.21783,-2.69661 2.65312,-2.69661 1.52228,0 2.69662,1.17433 2.69662,2.69661 l 0,13.3091 -5.34974,-3.04456 0,-10.26454 z"
         style="font-style:normal;font-variant:normal;font-weight:normal;font-stretch:normal;font-size:43.49378967px;font-family:'Metropolis 1920';-inkscape-font-specification:'Metropolis 1920, ';text-align:center;text-anchor:middle"
         id="path4160" />
      <path
         inkscape:connector-curvature="0"
         d="m 336.81913,457.38272 -4.56685,-8.3943 -1.73975,0 6.3066,11.56935 0,4.8713 -8.91623,-16.44065 -1.65276,0 0,34.75154 1.56578,0 0,-31.75047 2.34866,4.30589 0,27.44458 1.56578,0 0,-24.5305 5.08877,9.43815 0,15.09235 1.56578,0 0,-34.75154 -1.56578,0 0,8.3943 z m 3.91444,-8.3943 0,34.75154 1.56578,0 0,-34.75154 -1.56578,0 z"
         style="font-style:normal;font-variant:normal;font-weight:normal;font-stretch:normal;font-size:43.49378967px;font-family:'Metropolis 1920';-inkscape-font-specification:'Metropolis 1920, ';text-align:center;text-anchor:middle"
         id="path4162" />
      <path
         inkscape:connector-curvature="0"
         d="m 371.17855,468.99557 -2.34867,0 0,-19.96365 -1.56578,0 0,19.96365 -4.69732,0 0,-19.96365 -1.56578,0 0,19.96365 -2.34867,0 0,-19.96365 -1.56577,0 0,34.70804 1.56577,0 0,-9.26418 2.34867,0 0,9.26418 1.56578,0 0,-9.26418 4.69732,0 0,9.26418 1.56578,0 0,-10.82995 -10.17755,0 0,-2.34867 12.52622,0 0,13.17862 1.56577,0 0,-34.70804 -1.56577,0 0,19.96365 z"
         style="font-style:normal;font-variant:normal;font-weight:normal;font-stretch:normal;font-size:43.49378967px;font-family:'Metropolis 1920';-inkscape-font-specification:'Metropolis 1920, ';text-align:center;text-anchor:middle"
         id="path4164" />
      <path
         inkscape:connector-curvature="0"
         d="m 392.44701,450.5107 0,-1.52228 -13.61356,0 0,33.22926 0,1.52228 13.61356,0 0,-1.52228 -8.22033,0 0,-2.30517 8.22033,0 0,-1.56578 -8.22033,0 0,-9.22068 8.22033,0 0,-1.52229 -9.7861,0 0,10.74297 -2.30517,0 0,-13.04814 12.09127,0 0,-1.52228 -8.22033,0 0,-9.39466 8.22033,0 0,-1.56577 -9.7861,0 0,10.96043 -2.30517,0 0,-13.26561 12.09127,0 z m -12.09127,31.70698 0,-2.30517 2.30517,0 0,2.30517 -2.30517,0 z"
         style="font-style:normal;font-variant:normal;font-weight:normal;font-stretch:normal;font-size:43.49378967px;font-family:'Metropolis 1920';-inkscape-font-specification:'Metropolis 1920, ';text-align:center;text-anchor:middle"
         id="path4166" />
      <path
         inkscape:connector-curvature="0"
         d="m 406.02863,450.59769 0,2.30517 -2.21819,0 -1.60927,0 -5.82817,0 0,1.47879 5.82817,0 0,29.35831 1.60927,0 0,-29.35831 2.21819,0 0,29.35831 1.65276,0 0,-29.35831 5.91515,0 0,-1.47879 -5.91515,0 0,-2.30517 5.91515,0 0,-1.60927 -17.22354,0 0,1.60927 5.82817,0 1.60927,0 2.21819,0 z"
         style="font-style:normal;font-variant:normal;font-weight:normal;font-stretch:normal;font-size:43.49378967px;font-family:'Metropolis 1920';-inkscape-font-specification:'Metropolis 1920, ';text-align:center;text-anchor:middle"
         id="path4168" />
      <path
         inkscape:connector-curvature="0"
         d="m 425.65179,450.59769 0,2.30517 -2.21818,0 -1.60927,0 -5.82817,0 0,1.47879 5.82817,0 0,29.35831 1.60927,0 0,-29.35831 2.21818,0 0,29.35831 1.65277,0 0,-29.35831 5.91515,0 0,-1.47879 -5.91515,0 0,-2.30517 5.91515,0 0,-1.60927 -17.22354,0 0,1.60927 5.82817,0 1.60927,0 2.21818,0 z"
         style="font-style:normal;font-variant:normal;font-weight:normal;font-stretch:normal;font-size:43.49378967px;font-family:'Metropolis 1920';-inkscape-font-specification:'Metropolis 1920, ';text-align:center;text-anchor:middle"
         id="path4170" />
      <path
         inkscape:connector-curvature="0"
         d="m 445.40546,479.91251 7.30696,0 0,-1.47879 -7.30696,0 -2.56613,0 0,-2.43565 0,-26.96615 -1.47879,0 0,26.96615 0,2.43565 -2.34867,0 0,-29.4018 -1.47879,0 0,34.70804 3.82746,0 1.47879,0 9.87309,0 0,-1.47879 -9.87309,0 0,-2.34866 2.56613,0 z m -4.04492,2.34866 -2.34867,0 0,-2.34866 2.34867,0 0,2.34866 z"
         style="font-style:normal;font-variant:normal;font-weight:normal;font-stretch:normal;font-size:43.49378967px;font-family:'Metropolis 1920';-inkscape-font-specification:'Metropolis 1920, ';text-align:center;text-anchor:middle"
         id="path4172" />
      <path
         inkscape:connector-curvature="0"
         d="m 469.15578,450.5107 0,-1.52228 -13.61356,0 0,33.22926 0,1.52228 13.61356,0 0,-1.52228 -8.22033,0 0,-2.30517 8.22033,0 0,-1.56578 -8.22033,0 0,-9.22068 8.22033,0 0,-1.52229 -9.7861,0 0,10.74297 -2.30517,0 0,-13.04814 12.09127,0 0,-1.52228 -8.22033,0 0,-9.39466 8.22033,0 0,-1.56577 -9.7861,0 0,10.96043 -2.30517,0 0,-13.26561 12.09127,0 z m -12.09127,31.70698 0,-2.30517 2.30517,0 0,2.30517 -2.30517,0 z"
         style="font-style:normal;font-variant:normal;font-weight:normal;font-stretch:normal;font-size:43.49378967px;font-family:'Metropolis 1920';-inkscape-font-specification:'Metropolis 1920, ';text-align:center;text-anchor:middle"
         id="path4174" />
      <path
         inkscape:connector-curvature="0"
         d="m 490.26182,483.73996 1.69626,0 -4.87131,-11.56935 c 3.04457,-3.74046 3.91445,-8.78574 2.52264,-13.3091 -1.3918,-4.30588 -4.82781,-7.78539 -9.13369,-9.17719 -1.52228,-0.52192 -3.17505,-0.73939 -4.87131,-0.6959 l 7.91587,18.74583 c -0.43493,0.73939 -1.00035,1.3918 -1.69625,2.0442 l -6.82853,-16.17969 0,30.1412 1.56578,0 0,-22.3993 2.34866,5.5672 0,16.8321 1.56578,0 0,-7.04599 c 0.73939,-0.21747 1.47879,-0.56542 2.17469,-0.91337 l 3.34902,7.95936 1.69626,0 -4.30589,-10.26453 c -0.91337,0.6524 -1.87023,1.21782 -2.91408,1.56577 l 0,-2.56613 c 3.82745,-1.73975 6.21961,-5.95865 5.87166,-10.13405 -0.34795,-4.17541 -3.26203,-7.69841 -7.17647,-8.95973 l -1.13084,-2.65312 c 4.26239,0.60892 7.87237,3.56649 9.61212,7.39395 1.73976,4.04492 1.30482,8.78574 -1.26132,12.39573 -0.34795,0.47843 -0.73939,0.86987 -1.13083,1.34831 l 5.00178,11.8738 z m -9.7861,-27.22711 0,-0.82638 c 0.60891,0.30445 1.21782,0.78288 1.78324,1.3483 2.21819,2.21819 3.13156,5.6542 2.1312,8.78575 l -3.91444,-9.30767 z"
         style="font-style:normal;font-variant:normal;font-weight:normal;font-stretch:normal;font-size:43.49378967px;font-family:'Metropolis 1920';-inkscape-font-specification:'Metropolis 1920, ';text-align:center;text-anchor:middle"
         id="path4176" />
    </g>
    <g
       transform="matrix(1.65564,0,0,1.65564,-34.940784,-367.63618)"
       style="font-style:normal;font-weight:normal;font-size:40px;line-height:125%;font-family:sans-serif;letter-spacing:0px;word-spacing:0px;fill:#000000;fill-opacity:1;stroke:none;stroke-width:1px;stroke-linecap:butt;stroke-linejoin:miter;stroke-opacity:1"
       id="text4630">
      <path
         inkscape:connector-curvature="0"
         d="m 255.04486,517.83551 -0.4834,-2.12402 -0.17578,0 q -0.71777,1.12793 -2.05078,1.77246 -1.31836,0.64453 -3.01758,0.64453 -2.94433,0 -4.39453,-1.46484 -1.45019,-1.46485 -1.45019,-4.43848 l 0,-10.59082 3.47167,0 0,9.99023 q 0,1.86035 0.76172,2.79785 0.76172,0.92286 2.3877,0.92286 2.16797,0 3.17871,-1.28907 1.02539,-1.30371 1.02539,-4.35058 l 0,-8.07129 3.45703,0 0,16.20117 -2.70996,0 z"
         style="font-style:normal;font-variant:normal;font-weight:600;font-stretch:normal;font-size:30px;font-family:'Open Sans';-inkscape-font-specification:'Open Sans Semi-Bold';text-align:center;text-anchor:middle"
         id="path4179" />
      <path
         inkscape:connector-curvature="0"
         d="m 276.91498,517.83551 -3.45703,0 0,-9.96094 q 0,-1.875 -0.76172,-2.79785 -0.74707,-0.92285 -2.3877,-0.92285 -2.18261,0 -3.19336,1.28906 -1.01074,1.28906 -1.01074,4.32129 l 0,8.07129 -3.44238,0 0,-16.20117 2.69531,0 0.4834,2.12402 0.17578,0 q 0.73242,-1.15722 2.08008,-1.78711 1.34765,-0.62988 2.98828,-0.62988 5.83008,0 5.83008,5.93262 l 0,10.56152 z"
         style="font-style:normal;font-variant:normal;font-weight:600;font-stretch:normal;font-size:30px;font-family:'Open Sans';-inkscape-font-specification:'Open Sans Semi-Bold';text-align:center;text-anchor:middle"
         id="path4181" />
      <path
         inkscape:connector-curvature="0"
         d="m 287.16888,518.12848 q -3.03222,0 -4.73144,-2.19727 -1.69922,-2.19726 -1.69922,-6.16699 0,-3.98437 1.71387,-6.19629 1.72851,-2.22656 4.77539,-2.22656 3.19336,0 4.86328,2.3584 l 0.17578,0 q -0.24902,-1.74317 -0.24902,-2.75391 l 0,-5.90332 3.45703,0 0,22.79297 -2.69531,0 -0.60059,-2.12402 -0.16113,0 q -1.65528,2.41699 -4.84864,2.41699 z m 0.92286,-2.7832 q 2.12402,0 3.09082,-1.18653 0.96679,-1.20117 0.99609,-3.88183 l 0,-0.4834 q 0,-3.06153 -0.99609,-4.35059 -0.9961,-1.28906 -3.12012,-1.28906 -1.81641,0 -2.79785,1.47949 -0.98145,1.46485 -0.98145,4.18945 0,2.69532 0.95215,4.11622 0.95215,1.40625 2.85645,1.40625 z"
         style="font-style:normal;font-variant:normal;font-weight:600;font-stretch:normal;font-size:30px;font-family:'Open Sans';-inkscape-font-specification:'Open Sans Semi-Bold';text-align:center;text-anchor:middle"
         id="path4183" />
      <path
         inkscape:connector-curvature="0"
         d="m 307.47162,518.12848 q -3.7793,0 -5.91797,-2.19727 -2.12402,-2.21191 -2.12402,-6.0791 0,-3.96972 1.97754,-6.24023 1.97753,-2.27051 5.43457,-2.27051 3.208,0 5.06836,1.94824 1.86035,1.94824 1.86035,5.36133 l 0,1.86035 -10.7959,0 q 0.0732,2.3584 1.27441,3.63281 1.20117,1.25977 3.38379,1.25977 1.43555,0 2.66602,-0.26367 1.24511,-0.27832 2.66601,-0.90821 l 0,2.79786 q -1.25976,0.60058 -2.54883,0.84961 -1.28906,0.24902 -2.94433,0.24902 z m -0.62988,-14.17969 q -1.64063,0 -2.63672,1.04004 -0.98145,1.04004 -1.17188,3.03223 l 7.35352,0 q -0.0293,-2.00684 -0.9668,-3.03223 -0.9375,-1.04004 -2.57812,-1.04004 z"
         style="font-style:normal;font-variant:normal;font-weight:600;font-stretch:normal;font-size:30px;font-family:'Open Sans';-inkscape-font-specification:'Open Sans Semi-Bold';text-align:center;text-anchor:middle"
         id="path4185" />
      <path
         inkscape:connector-curvature="0"
         d="m 325.89935,501.34137 q 1.04004,0 1.71387,0.14648 l -0.33691,3.20801 q -0.73243,-0.17578 -1.52344,-0.17578 -2.06543,0 -3.35449,1.34766 -1.27442,1.34765 -1.27442,3.50097 l 0,8.4668 -3.44238,0 0,-16.20117 2.69531,0 0.4541,2.85644 0.17578,0 q 0.80567,-1.45019 2.09473,-2.2998 1.30371,-0.84961 2.79785,-0.84961 z"
         style="font-style:normal;font-variant:normal;font-weight:600;font-stretch:normal;font-size:30px;font-family:'Open Sans';-inkscape-font-specification:'Open Sans Semi-Bold';text-align:center;text-anchor:middle"
         id="path4187" />
      <path
         inkscape:connector-curvature="0"
         d="m 344.45892,515.34528 q 1.25977,0 2.51953,-0.39551 l 0,2.59277 q -0.57128,0.24902 -1.47949,0.41016 -0.89355,0.17578 -1.86035,0.17578 -4.89258,0 -4.89258,-5.15625 l 0,-8.73047 -2.21191,0 0,-1.52344 2.37305,-1.25976 1.17187,-3.42774 2.12402,0 0,3.60352 4.61426,0 0,2.60742 -4.61426,0 0,8.67188 q 0,1.24511 0.61524,1.8457 0.62988,0.58594 1.64062,0.58594 z"
         style="font-style:normal;font-variant:normal;font-weight:600;font-stretch:normal;font-size:30px;font-family:'Open Sans';-inkscape-font-specification:'Open Sans Semi-Bold';text-align:center;text-anchor:middle"
         id="path4189" />
      <path
         inkscape:connector-curvature="0"
         d="m 364.45404,517.83551 -3.45703,0 0,-9.96094 q 0,-1.875 -0.76172,-2.79785 -0.74707,-0.92285 -2.38769,-0.92285 -2.16797,0 -3.19336,1.30371 -1.01075,1.28906 -1.01075,4.33594 l 0,8.04199 -3.44238,0 0,-22.79297 3.44238,0 0,5.78613 q 0,1.39161 -0.17578,2.97364 l 0.21973,0 q 0.70312,-1.17188 1.94824,-1.81641 1.25977,-0.64453 2.92969,-0.64453 5.88867,0 5.88867,5.93262 l 0,10.56152 z"
         style="font-style:normal;font-variant:normal;font-weight:600;font-stretch:normal;font-size:30px;font-family:'Open Sans';-inkscape-font-specification:'Open Sans Semi-Bold';text-align:center;text-anchor:middle"
         id="path4191" />
      <path
         inkscape:connector-curvature="0"
         d="m 376.31927,518.12848 q -3.77929,0 -5.91796,-2.19727 -2.12403,-2.21191 -2.12403,-6.0791 0,-3.96972 1.97754,-6.24023 1.97754,-2.27051 5.43457,-2.27051 3.20801,0 5.06836,1.94824 1.86035,1.94824 1.86035,5.36133 l 0,1.86035 -10.7959,0 q 0.0732,2.3584 1.27442,3.63281 1.20117,1.25977 3.38379,1.25977 1.43554,0 2.66601,-0.26367 1.24512,-0.27832 2.66602,-0.90821 l 0,2.79786 q -1.25977,0.60058 -2.54883,0.84961 -1.28906,0.24902 -2.94434,0.24902 z m -0.62988,-14.17969 q -1.64062,0 -2.63672,1.04004 -0.98144,1.04004 -1.17187,3.03223 l 7.35351,0 q -0.0293,-2.00684 -0.96679,-3.03223 -0.9375,-1.04004 -2.57813,-1.04004 z"
         style="font-style:normal;font-variant:normal;font-weight:600;font-stretch:normal;font-size:30px;font-family:'Open Sans';-inkscape-font-specification:'Open Sans Semi-Bold';text-align:center;text-anchor:middle"
         id="path4193" />
      <path
         inkscape:connector-curvature="0"
         d="m 407.60834,517.83551 -2.09473,-7.55859 q -0.38086,-1.20118 -1.37695,-5.58106 l -0.13184,0 q -0.84961,3.95508 -1.34765,5.61035 l -2.15332,7.5293 -3.8086,0 -4.54101,-16.20117 3.51562,0 2.06543,7.9834 q 0.70313,2.95898 0.99609,5.06836 l 0.0879,0 q 0.14649,-1.06934 0.43946,-2.44629 0.30762,-1.3916 0.52734,-2.08008 l 2.46094,-8.52539 3.7793,0 2.38769,8.52539 q 0.21973,0.71777 0.54199,2.19726 0.33692,1.4795 0.39551,2.29981 l 0.11719,0 q 0.21973,-1.80176 1.02539,-5.03906 l 2.09473,-7.9834 3.45703,0 -4.57032,16.20117 -3.86718,0 z"
         style="font-style:normal;font-variant:normal;font-weight:600;font-stretch:normal;font-size:30px;font-family:'Open Sans';-inkscape-font-specification:'Open Sans Semi-Bold';text-align:center;text-anchor:middle"
         id="path4195" />
      <path
         inkscape:connector-curvature="0"
         d="m 428.95111,517.83551 -0.68848,-2.25586 -0.11718,0 q -1.17188,1.47949 -2.3584,2.02149 -1.18653,0.52734 -3.04688,0.52734 -2.38769,0 -3.73535,-1.28906 -1.33301,-1.28907 -1.33301,-3.64746 0,-2.50489 1.86036,-3.7793 1.86035,-1.27442 5.66894,-1.3916 l 2.79785,-0.0879 0,-0.86426 q 0,-1.55274 -0.73242,-2.31445 -0.71777,-0.77637 -2.24121,-0.77637 -1.24512,0 -2.3877,0.36621 -1.14257,0.36621 -2.19726,0.86426 l -1.11328,-2.46094 q 1.31836,-0.68848 2.88574,-1.04004 1.56738,-0.36621 2.95898,-0.36621 3.09082,0 4.65821,1.34766 1.58203,1.34765 1.58203,4.23339 l 0,10.91309 -2.46094,0 z m -5.12695,-2.34375 q 1.875,0 3.00293,-1.04004 1.14258,-1.05469 1.14258,-2.94433 l 0,-1.40625 -2.08008,0.0879 q -2.43164,0.0879 -3.54492,0.82031 -1.09864,0.71777 -1.09864,2.21191 0,1.08399 0.64453,1.68457 0.64454,0.58594 1.9336,0.58594 z"
         style="font-style:normal;font-variant:normal;font-weight:600;font-stretch:normal;font-size:30px;font-family:'Open Sans';-inkscape-font-specification:'Open Sans Semi-Bold';text-align:center;text-anchor:middle"
         id="path4197" />
      <path
         inkscape:connector-curvature="0"
         d="m 439.90814,517.83551 -6.15234,-16.20117 3.63281,0 3.2959,9.41894 q 0.84961,2.37305 1.02539,3.83789 l 0.11719,0 q 0.13183,-1.05468 1.02539,-3.83789 l 3.2959,-9.41894 3.66211,0 -6.18164,16.20117 -3.72071,0 z"
         style="font-style:normal;font-variant:normal;font-weight:600;font-stretch:normal;font-size:30px;font-family:'Open Sans';-inkscape-font-specification:'Open Sans Semi-Bold';text-align:center;text-anchor:middle"
         id="path4199" />
      <path
         inkscape:connector-curvature="0"
         d="m 459.34662,518.12848 q -3.7793,0 -5.91797,-2.19727 -2.12402,-2.21191 -2.12402,-6.0791 0,-3.96972 1.97754,-6.24023 1.97753,-2.27051 5.43457,-2.27051 3.208,0 5.06836,1.94824 1.86035,1.94824 1.86035,5.36133 l 0,1.86035 -10.7959,0 q 0.0732,2.3584 1.27441,3.63281 1.20117,1.25977 3.38379,1.25977 1.43555,0 2.66602,-0.26367 1.24511,-0.27832 2.66601,-0.90821 l 0,2.79786 q -1.25976,0.60058 -2.54883,0.84961 -1.28906,0.24902 -2.94433,0.24902 z m -0.62988,-14.17969 q -1.64063,0 -2.63672,1.04004 -0.98145,1.04004 -1.17188,3.03223 l 7.35352,0 q -0.0293,-2.00684 -0.9668,-3.03223 -0.9375,-1.04004 -2.57812,-1.04004 z"
         style="font-style:normal;font-variant:normal;font-weight:600;font-stretch:normal;font-size:30px;font-family:'Open Sans';-inkscape-font-specification:'Open Sans Semi-Bold';text-align:center;text-anchor:middle"
         id="path4201" />
      <path
         inkscape:connector-curvature="0"
         d="m 480.44037,513.22125 q 0,2.37305 -1.72852,3.64746 -1.72851,1.25977 -4.95117,1.25977 -3.2373,0 -5.20019,-0.98145 l 0,-2.97363 q 2.85644,1.31836 5.31738,1.31836 3.17871,0 3.17871,-1.91895 0,-0.61523 -0.35156,-1.02539 -0.35157,-0.41015 -1.15723,-0.84961 -0.80566,-0.43945 -2.24121,-0.99609 -2.79785,-1.08398 -3.79395,-2.16797 -0.98144,-1.08398 -0.98144,-2.8125 0,-2.08008 1.66992,-3.22265 1.68457,-1.15723 4.57031,-1.15723 2.85645,0 5.40528,1.15723 l -1.11328,2.59277 q -2.62207,-1.08398 -4.40918,-1.08398 -2.72461,0 -2.72461,1.55273 0,0.76172 0.70312,1.28906 0.71777,0.52735 3.10547,1.4502 2.00684,0.77636 2.91504,1.4209 0.9082,0.64453 1.34766,1.49414 0.43945,0.83496 0.43945,2.00683 z"
         style="font-style:normal;font-variant:normal;font-weight:600;font-stretch:normal;font-size:30px;font-family:'Open Sans';-inkscape-font-specification:'Open Sans Semi-Bold';text-align:center;text-anchor:middle"
         id="path4203" />
      <path
         inkscape:connector-curvature="0"
         d="m 514.76166,507.01031 q 0,2.09473 -0.65918,3.8379 -0.65918,1.72851 -1.86035,2.69531 -1.18653,0.96679 -2.75391,0.96679 -1.15723,0 -2.00684,-0.61523 -0.84961,-0.61523 -1.14257,-1.66992 l -0.17579,0 q -0.71777,1.14258 -1.77246,1.71387 -1.05468,0.57128 -2.37304,0.57128 -2.3877,0 -3.76465,-1.53808 -1.36231,-1.53809 -1.36231,-4.16016 0,-3.01758 1.81641,-4.89258 1.81641,-1.88964 4.87793,-1.88964 1.11328,0 2.46094,0.20507 1.3623,0.19043 2.41699,0.542 l -0.32227,6.81152 0,0.35156 q 0,2.34375 1.52344,2.34375 1.15723,0 1.83106,-1.49414 0.68847,-1.49414 0.68847,-3.80859 0,-2.50488 -1.02539,-4.39453 -1.02539,-1.9043 -2.91504,-2.92969 -1.88965,-1.02539 -4.33593,-1.02539 -3.12012,0 -5.43457,1.28906 -2.29981,1.28906 -3.51563,3.69141 -1.21582,2.38769 -1.21582,5.55176 0,4.24804 2.27051,6.5332 2.27051,2.28515 6.51855,2.28515 3.23731,0 6.75293,-1.31835 l 0,2.40234 q -3.07617,1.25976 -6.69433,1.25976 -5.41993,0 -8.45215,-2.91503 -3.03223,-2.92969 -3.03223,-8.15918 0,-3.82325 1.64063,-6.79688 1.64062,-2.98828 4.54101,-4.57031 2.91504,-1.58203 6.5918,-1.58203 3.17871,0 5.6543,1.31836 2.49023,1.31836 3.85253,3.76464 1.37696,2.43165 1.37696,5.625 z m -15.0586,1.86036 q 0,3.41308 2.68067,3.41308 2.82715,0 3.09082,-4.29199 l 0.17578,-3.50098 q -0.92285,-0.24902 -1.97754,-0.24902 -1.875,0 -2.92969,1.24512 -1.04004,1.24511 -1.04004,3.38379 z"
         style="font-style:normal;font-variant:normal;font-weight:600;font-stretch:normal;font-size:30px;font-family:'Open Sans';-inkscape-font-specification:'Open Sans Semi-Bold';text-align:center;text-anchor:middle"
         id="path4205" />
      <path
         inkscape:connector-curvature="0"
         d="m 295.83221,543.07193 -1.22192,-4.40918 q -0.22217,-0.70068 -0.80322,-3.25561 l -0.0769,0 q -0.4956,2.30712 -0.78613,3.2727 l -1.2561,4.39209 -2.22168,0 -2.64893,-9.45068 2.05078,0 1.20484,4.65698 q 0.41015,1.72607 0.58105,2.95654 l 0.0513,0 q 0.0854,-0.62378 0.25635,-1.427 0.17944,-0.81177 0.30762,-1.21338 l 1.43554,-4.97314 2.20459,0 1.39283,4.97314 q 0.12817,0.4187 0.31616,1.28174 0.19653,0.86304 0.23071,1.34155 l 0.0684,0 q 0.12817,-1.05102 0.59814,-2.93945 l 1.22193,-4.65698 2.0166,0 -2.66602,9.45068 -2.25586,0 z"
         style="font-style:normal;font-variant:normal;font-weight:600;font-stretch:normal;font-size:17.5px;font-family:'Open Sans';-inkscape-font-specification:'Open Sans Semi-Bold';text-align:center;text-anchor:middle"
         id="path4207" />
      <path
         inkscape:connector-curvature="0"
         d="m 310.11932,543.07193 -1.22192,-4.40918 q -0.22217,-0.70068 -0.80322,-3.25561 l -0.0769,0 q -0.4956,2.30712 -0.78613,3.2727 l -1.2561,4.39209 -2.22168,0 -2.64893,-9.45068 2.05078,0 1.20484,4.65698 q 0.41015,1.72607 0.58105,2.95654 l 0.0513,0 q 0.0854,-0.62378 0.25635,-1.427 0.17944,-0.81177 0.30762,-1.21338 l 1.43554,-4.97314 2.20459,0 1.39282,4.97314 q 0.12818,0.4187 0.31617,1.28174 0.19653,0.86304 0.23071,1.34155 l 0.0684,0 q 0.12817,-1.05102 0.59814,-2.93945 l 1.22193,-4.65698 2.0166,0 -2.66602,9.45068 -2.25586,0 z"
         style="font-style:normal;font-variant:normal;font-weight:600;font-stretch:normal;font-size:17.5px;font-family:'Open Sans';-inkscape-font-specification:'Open Sans Semi-Bold';text-align:center;text-anchor:middle"
         id="path4209" />
      <path
         inkscape:connector-curvature="0"
         d="m 324.40643,543.07193 -1.22192,-4.40918 q -0.22217,-0.70068 -0.80322,-3.25561 l -0.0769,0 q -0.4956,2.30712 -0.78613,3.2727 l -1.2561,4.39209 -2.22168,0 -2.64893,-9.45068 2.05078,0 1.20484,4.65698 q 0.41015,1.72607 0.58105,2.95654 l 0.0513,0 q 0.0855,-0.62378 0.25635,-1.427 0.17944,-0.81177 0.30761,-1.21338 l 1.43555,-4.97314 2.20459,0 1.39282,4.97314 q 0.12818,0.4187 0.31617,1.28174 0.19653,0.86304 0.23071,1.34155 l 0.0684,0 q 0.12817,-1.05102 0.59814,-2.93945 l 1.22193,-4.65698 2.0166,0 -2.66602,9.45068 -2.25586,0 z"
         style="font-style:normal;font-variant:normal;font-weight:600;font-stretch:normal;font-size:17.5px;font-family:'Open Sans';-inkscape-font-specification:'Open Sans Semi-Bold';text-align:center;text-anchor:middle"
         id="path4211" />
      <path
         inkscape:connector-curvature="0"
         d="m 330.64423,542.00381 q 0,-0.62377 0.3247,-0.95703 0.32471,-0.33325 0.93994,-0.33325 0.62378,0 0.94849,0.35034 0.32471,0.3418 0.32471,0.93994 0,0.60669 -0.33325,0.96558 -0.32471,0.35034 -0.93995,0.35034 -0.61523,0 -0.93994,-0.35034 -0.3247,-0.35034 -0.3247,-0.96558 z"
         style="font-style:normal;font-variant:normal;font-weight:600;font-stretch:normal;font-size:17.5px;font-family:'Open Sans';-inkscape-font-specification:'Open Sans Semi-Bold';text-align:center;text-anchor:middle"
         id="path4213" />
      <path
         inkscape:connector-curvature="0"
         d="m 340.55634,533.45035 q 0.60668,0 0.99975,0.0855 l -0.19653,1.87134 q -0.42725,-0.10254 -0.88867,-0.10254 -1.20484,0 -1.95679,0.78613 -0.74341,0.78613 -0.74341,2.04224 l 0,4.93896 -2.00806,0 0,-9.45068 1.57227,0 0.26489,1.66626 0.10254,0 q 0.46997,-0.84595 1.22193,-1.34156 0.76049,-0.4956 1.63208,-0.4956 z"
         style="font-style:normal;font-variant:normal;font-weight:600;font-stretch:normal;font-size:17.5px;font-family:'Open Sans';-inkscape-font-specification:'Open Sans Semi-Bold';text-align:center;text-anchor:middle"
         id="path4215" />
      <path
         inkscape:connector-curvature="0"
         d="m 341.8808,533.62125 2.1875,0 1.92261,5.35766 q 0.43579,1.14502 0.58105,2.15332 l 0.0684,0 q 0.0769,-0.46997 0.28198,-1.13647 0.20508,-0.67505 2.17041,-6.37451 l 2.17041,0 -4.04175,10.70678 q -1.10229,2.948 -3.67431,2.948 -0.66651,0 -1.29883,-0.14526 l 0,-1.58936 q 0.45288,0.10254 1.03394,0.10254 1.45263,0 2.04223,-1.68335 l 0.35034,-0.88867 -3.79394,-9.45068 z"
         style="font-style:normal;font-variant:normal;font-weight:600;font-stretch:normal;font-size:17.5px;font-family:'Open Sans';-inkscape-font-specification:'Open Sans Semi-Bold';text-align:center;text-anchor:middle"
         id="path4217" />
      <path
         inkscape:connector-curvature="0"
         d="m 358.62885,543.07193 -0.40162,-1.31592 -0.0684,0 q -0.68359,0.86304 -1.37573,1.1792 -0.69214,0.30762 -1.77734,0.30762 -1.39282,0 -2.17896,-0.75195 -0.77758,-0.75196 -0.77758,-2.12769 0,-1.46118 1.0852,-2.20459 1.08521,-0.74341 3.30689,-0.81177 l 1.63208,-0.0513 0,-0.50415 q 0,-0.90576 -0.42725,-1.3501 -0.4187,-0.45288 -1.30737,-0.45288 -0.72632,0 -1.39283,0.21363 -0.6665,0.21362 -1.28173,0.50415 l -0.64942,-1.43555 q 0.76904,-0.40161 1.68335,-0.60669 0.91431,-0.21362 1.72608,-0.21362 1.80297,0 2.71728,0.78613 0.92285,0.78613 0.92285,2.46948 l 0,6.36597 -1.43554,0 z m -2.99073,-1.36719 q 1.09375,0 1.75171,-0.60669 0.66651,-0.61523 0.66651,-1.71753 l 0,-0.82031 -1.21338,0.0513 q -1.41846,0.0513 -2.06787,0.47852 -0.64087,0.4187 -0.64087,1.29028 0,0.63232 0.37597,0.98267 0.37598,0.34179 1.12793,0.34179 z"
         style="font-style:normal;font-variant:normal;font-weight:600;font-stretch:normal;font-size:17.5px;font-family:'Open Sans';-inkscape-font-specification:'Open Sans Semi-Bold';text-align:center;text-anchor:middle"
         id="path4219" />
      <path
         inkscape:connector-curvature="0"
         d="m 371.18134,543.07193 -2.01661,0 0,-5.81055 q 0,-1.09375 -0.44433,-1.63208 -0.43579,-0.53833 -1.39282,-0.53833 -1.2732,0 -1.8628,0.75196 -0.5896,0.75195 -0.5896,2.52075 l 0,4.70825 -2.00805,0 0,-9.45068 1.57226,0 0.28198,1.23901 0.10254,0 q 0.42725,-0.67505 1.21338,-1.04248 0.78614,-0.36743 1.74317,-0.36743 3.40088,0 3.40088,3.46069 l 0,6.16089 z"
         style="font-style:normal;font-variant:normal;font-weight:600;font-stretch:normal;font-size:17.5px;font-family:'Open Sans';-inkscape-font-specification:'Open Sans Semi-Bold';text-align:center;text-anchor:middle"
         id="path4221" />
      <path
         inkscape:connector-curvature="0"
         d="m 382.28973,543.07193 -2.0166,0 0,-5.81055 q 0,-1.09375 -0.44433,-1.63208 -0.43579,-0.53833 -1.39283,-0.53833 -1.26464,0 -1.86279,0.7605 -0.5896,0.75195 -0.5896,2.5293 l 0,4.69116 -2.00806,0 0,-13.2959 2.00806,0 0,3.37525 q 0,0.81176 -0.10254,1.73461 l 0.12818,0 q 0.41015,-0.68359 1.13647,-1.05957 0.73486,-0.37597 1.70899,-0.37597 3.43505,0 3.43505,3.46069 l 0,6.16089 z"
         style="font-style:normal;font-variant:normal;font-weight:600;font-stretch:normal;font-size:17.5px;font-family:'Open Sans';-inkscape-font-specification:'Open Sans Semi-Bold';text-align:center;text-anchor:middle"
         id="path4223" />
      <path
         inkscape:connector-curvature="0"
         d="m 389.21112,543.24283 q -2.20459,0 -3.45215,-1.28174 -1.23901,-1.29028 -1.23901,-3.54614 0,-2.31568 1.15356,-3.64014 1.15357,-1.32446 3.17017,-1.32446 1.87134,0 2.95654,1.13647 1.08521,1.13648 1.08521,3.12744 l 0,1.08521 -6.29761,0 q 0.0427,1.37573 0.74341,2.11914 0.70068,0.73486 1.97387,0.73486 0.83741,0 1.55518,-0.15381 0.72632,-0.16235 1.55518,-0.52978 l 0,1.63208 q -0.73487,0.35034 -1.48682,0.4956 -0.75195,0.14527 -1.71753,0.14527 z m -0.36743,-8.27149 q -0.95703,0 -1.53809,0.60669 -0.57251,0.60669 -0.68359,1.7688 l 4.28955,0 q -0.0171,-1.17065 -0.56396,-1.7688 -0.54688,-0.60669 -1.50391,-0.60669 z"
         style="font-style:normal;font-variant:normal;font-weight:600;font-stretch:normal;font-size:17.5px;font-family:'Open Sans';-inkscape-font-specification:'Open Sans Semi-Bold';text-align:center;text-anchor:middle"
         id="path4225" />
      <path
         inkscape:connector-curvature="0"
         d="m 398.68744,541.61929 q 0.73486,0 1.46973,-0.23071 l 0,1.51245 q -0.33326,0.14527 -0.86304,0.23926 -0.52124,0.10254 -1.08521,0.10254 -2.854,0 -2.854,-3.00781 l 0,-5.09278 -1.29028,0 0,-0.88867 1.38427,-0.73486 0.6836,-1.99951 1.23901,0 0,2.10205 2.69165,0 0,1.52099 -2.69165,0 0,5.0586 q 0,0.72631 0.35889,1.07666 0.36743,0.34179 0.95703,0.34179 z"
         style="font-style:normal;font-variant:normal;font-weight:600;font-stretch:normal;font-size:17.5px;font-family:'Open Sans';-inkscape-font-specification:'Open Sans Semi-Bold';text-align:center;text-anchor:middle"
         id="path4227" />
      <path
         inkscape:connector-curvature="0"
         d="m 405.55756,541.61929 q 0.73486,0 1.46972,-0.23071 l 0,1.51245 q -0.33325,0.14527 -0.86303,0.23926 -0.52124,0.10254 -1.08521,0.10254 -2.854,0 -2.854,-3.00781 l 0,-5.09278 -1.29029,0 0,-0.88867 1.38428,-0.73486 0.68359,-1.99951 1.23902,0 0,2.10205 2.69165,0 0,1.52099 -2.69165,0 0,5.0586 q 0,0.72631 0.35888,1.07666 0.36744,0.34179 0.95704,0.34179 z"
         style="font-style:normal;font-variant:normal;font-weight:600;font-stretch:normal;font-size:17.5px;font-family:'Open Sans';-inkscape-font-specification:'Open Sans Semi-Bold';text-align:center;text-anchor:middle"
         id="path4229" />
      <path
         inkscape:connector-curvature="0"
         d="m 410.91522,543.07193 -2.00805,0 0,-13.2959 2.00805,0 0,13.2959 z"
         style="font-style:normal;font-variant:normal;font-weight:600;font-stretch:normal;font-size:17.5px;font-family:'Open Sans';-inkscape-font-specification:'Open Sans Semi-Bold';text-align:center;text-anchor:middle"
         id="path4231" />
      <path
         inkscape:connector-curvature="0"
         d="m 417.92206,543.24283 q -2.20459,0 -3.45215,-1.28174 -1.23901,-1.29028 -1.23901,-3.54614 0,-2.31568 1.15356,-3.64014 1.15356,-1.32446 3.17017,-1.32446 1.87133,0 2.95654,1.13647 1.0852,1.13648 1.0852,3.12744 l 0,1.08521 -6.2976,0 q 0.0427,1.37573 0.74341,2.11914 0.70068,0.73486 1.97387,0.73486 0.8374,0 1.55518,-0.15381 0.72632,-0.16235 1.55517,-0.52978 l 0,1.63208 q -0.73486,0.35034 -1.48681,0.4956 -0.75196,0.14527 -1.71753,0.14527 z m -0.36743,-8.27149 q -0.95703,0 -1.53809,0.60669 -0.57251,0.60669 -0.68359,1.7688 l 4.28955,0 q -0.0171,-1.17065 -0.56397,-1.7688 -0.54687,-0.60669 -1.5039,-0.60669 z"
         style="font-style:normal;font-variant:normal;font-weight:600;font-stretch:normal;font-size:17.5px;font-family:'Open Sans';-inkscape-font-specification:'Open Sans Semi-Bold';text-align:center;text-anchor:middle"
         id="path4233" />
      <path
         inkscape:connector-curvature="0"
         d="m 428.67157,533.45035 q 0.60669,0 0.99976,0.0855 l -0.19654,1.87134 q -0.42724,-0.10254 -0.88867,-0.10254 -1.20483,0 -1.95679,0.78613 -0.7434,0.78613 -0.7434,2.04224 l 0,4.93896 -2.00806,0 0,-9.45068 1.57226,0 0.2649,1.66626 0.10254,0 q 0.46997,-0.84595 1.22192,-1.34156 0.7605,-0.4956 1.63208,-0.4956 z"
         style="font-style:normal;font-variant:normal;font-weight:600;font-stretch:normal;font-size:17.5px;font-family:'Open Sans';-inkscape-font-specification:'Open Sans Semi-Bold';text-align:center;text-anchor:middle"
         id="path4235" />
      <path
         inkscape:connector-curvature="0"
         d="m 431.13251,542.00381 q 0,-0.62377 0.3247,-0.95703 0.32471,-0.33325 0.93995,-0.33325 0.62378,0 0.94848,0.35034 0.32471,0.3418 0.32471,0.93994 0,0.60669 -0.33325,0.96558 -0.32471,0.35034 -0.93994,0.35034 -0.61524,0 -0.93995,-0.35034 -0.3247,-0.35034 -0.3247,-0.96558 z"
         style="font-style:normal;font-variant:normal;font-weight:600;font-stretch:normal;font-size:17.5px;font-family:'Open Sans';-inkscape-font-specification:'Open Sans Semi-Bold';text-align:center;text-anchor:middle"
         id="path4237" />
      <path
         inkscape:connector-curvature="0"
         d="m 440.06195,543.24283 q -2.14477,0 -3.26416,-1.24756 -1.11084,-1.2561 -1.11084,-3.59741 0,-2.38404 1.16211,-3.66577 1.17065,-1.28174 3.37524,-1.28174 1.49537,0 2.69165,0.55542 l -0.60668,1.61499 q -1.2732,-0.49561 -2.10206,-0.49561 -2.45239,0 -2.45239,3.25562 0,1.58935 0.60669,2.39258 0.61524,0.79467 1.79443,0.79467 1.34156,0 2.53785,-0.6665 l 0,1.75171 q -0.53833,0.31616 -1.15357,0.45288 -0.60669,0.13672 -1.47827,0.13672 z"
         style="font-style:normal;font-variant:normal;font-weight:600;font-stretch:normal;font-size:17.5px;font-family:'Open Sans';-inkscape-font-specification:'Open Sans Semi-Bold';text-align:center;text-anchor:middle"
         id="path4239" />
      <path
         inkscape:connector-curvature="0"
         d="m 453.31512,538.3295 q 0,2.31567 -1.18774,3.6145 -1.18774,1.29883 -3.30688,1.29883 -1.32447,0 -2.34131,-0.59815 -1.01685,-0.59814 -1.56372,-1.71753 -0.54688,-1.11938 -0.54688,-2.59765 0,-2.29859 1.1792,-3.58887 1.1792,-1.29028 3.32398,-1.29028 2.05078,0 3.24707,1.32446 1.19628,1.31592 1.19628,3.55469 z m -6.87866,0 q 0,3.2727 2.41822,3.2727 2.39257,0 2.39257,-3.2727 0,-3.23853 -2.40966,-3.23853 -1.26465,0 -1.83716,0.83741 -0.56397,0.8374 -0.56397,2.40112 z"
         style="font-style:normal;font-variant:normal;font-weight:600;font-stretch:normal;font-size:17.5px;font-family:'Open Sans';-inkscape-font-specification:'Open Sans Semi-Bold';text-align:center;text-anchor:middle"
         id="path4241" />
      <path
         inkscape:connector-curvature="0"
         d="m 463.59467,543.07193 -2.01661,0 0,-5.82764 q 0,-1.0852 -0.41015,-1.61499 -0.41016,-0.53833 -1.28174,-0.53833 -1.16211,0 -1.70898,0.7605 -0.53834,0.75195 -0.53834,2.51221 l 0,4.70825 -2.00805,0 0,-9.45068 1.57226,0 0.28199,1.23901 0.10254,0 q 0.39306,-0.67505 1.13647,-1.04248 0.75195,-0.36743 1.64917,-0.36743 2.17896,0 2.88818,1.48681 l 0.13672,0 q 0.4187,-0.70068 1.1792,-1.09375 0.7605,-0.39306 1.74317,-0.39306 1.69189,0 2.46093,0.85449 0.77759,0.85449 0.77759,2.6062 l 0,6.16089 -2.00806,0 0,-5.82764 q 0,-1.0852 -0.4187,-1.61499 -0.41015,-0.53833 -1.28174,-0.53833 -1.17065,0 -1.71752,0.73487 -0.53833,0.72631 -0.53833,2.23877 l 0,5.00732 z"
         style="font-style:normal;font-variant:normal;font-weight:600;font-stretch:normal;font-size:17.5px;font-family:'Open Sans';-inkscape-font-specification:'Open Sans Semi-Bold';text-align:center;text-anchor:middle"
         id="path4243" />
    </g>
  </g>
</svg>
